<?xml version="1.0" encoding="UTF-8"?><svg id="Ebene_1" xmlns="http://www.w3.org/2000/svg" viewBox="0 0 1280 1920"><defs><style>.cls-1{stroke:#fff;stroke-miterlimit:10;stroke-width:3.97px;}.cls-1,.cls-2{fill:#0014e6;}.cls-3{fill:#fa6e50;}.cls-3,.cls-2,.cls-4{stroke-width:0px;}.cls-4{fill:#fff;}</style></defs><rect class="cls-3" x="-2.2" y="-3.3" width="1284.4" height="1923.9"/><rect class="cls-4" x="598.57" y="684.56" width="29.1" height="39.6" transform="translate(-318.48 639.84) rotate(-45)"/><rect class="cls-4" x="646.99" y="733.13" width="29.1" height="39.6" transform="translate(-338.64 688.31) rotate(-45)"/><rect class="cls-2" x="583.28" y="713.99" width="108.2" height="29.1" transform="translate(-328.47 664.08) rotate(-45)"/><rect class="cls-2" x="101.6" y="89.4" width="49.6" height="23"/><path class="cls-4" d="M157.7,100.8c0-14.8,11.9-26.7,26.7-26.7v-23c-27.4,0-49.6,22.2-49.6,49.6s22.2,49.6,49.6,49.6v-23c-14.7.2-26.7-11.8-26.7-26.5"/><path class="cls-4" d="M476.06,1751.33c-10.07,0-18.2-8.13-18.2-18.2s8.13-18.2,18.2-18.2,18.2,8.13,18.2,18.2-8.24,18.2-18.2,18.2M476.06,1699.26c-18.65,0-33.88,15.22-33.88,33.88s15.22,33.88,33.88,33.88,33.88-15.22,33.88-33.88c-.11-18.65-15.22-33.88-33.88-33.88"/><path class="cls-4" d="M225.65,1751.33c-10.07,0-18.2-8.13-18.2-18.2s8.13-18.2,18.2-18.2,18.2,8.13,18.2,18.2c.11,10.07-8.13,18.2-18.2,18.2M225.65,1699.26c-18.65,0-33.88,15.22-33.88,33.88s15.22,33.88,33.88,33.88,33.88-15.22,33.88-33.88-15.22-33.88-33.88-33.88"/><path class="cls-4" d="M104.45,1751.33c-10.07,0-18.2-8.13-18.2-18.2s8.13-18.2,18.2-18.2,18.2,8.13,18.2,18.2c0,10.07-8.13,18.2-18.2,18.2M138.44,1733.13v-63.06h-15.56v34.56c-5.26-3.32-11.56-5.26-18.2-5.26-18.65,0-33.88,15.22-33.88,33.88s15.22,33.88,33.88,33.88c18.65-.11,33.76-15.34,33.76-33.99Z"/><path class="cls-4" d="M333.34,1751.33c-10.07,0-18.2-8.13-18.2-18.2s8.13-18.2,18.2-18.2,18.2,8.13,18.2,18.2-8.13,18.2-18.2,18.2M367.22,1670.07h-15.56v34.56c-5.26-3.32-11.56-5.26-18.2-5.26-18.65,0-33.88,15.22-33.88,33.88s15.22,33.88,33.88,33.88,33.88-15.22,33.88-33.88v-63.17h-.11Z"/><rect class="cls-4" x="271.65" y="1699.26" width="15.56" height="67.64"/><path class="cls-4" d="M150.46,1733.13h0v33.88h15.56v-33.88c0-10.07,8.13-18.2,18.2-18.2v-15.56c-18.65-.11-33.76,15.11-33.76,33.76"/><path class="cls-4" d="M423.53,1745.95c-3.32,3.32-7.9,5.38-12.82,5.38-10.07,0-18.2-8.13-18.2-18.2s8.13-18.2,18.2-18.2c4.92,0,9.61,2.06,12.82,5.38l11.1-11.1c-6.18-6.18-14.53-9.96-23.92-9.96-18.65,0-33.88,15.22-33.88,33.88s15.22,33.88,33.88,33.88c9.38,0,17.85-3.78,23.92-9.96l-11.1-11.1Z"/><path class="cls-4" d="M554.8,1699.26c-18.65,0-33.88,15.22-33.88,33.88h0v33.88h15.56v-33.88h0c0-10.07,8.13-18.2,18.2-18.2s18.2,8.13,18.2,18.2v33.88h15.56v-33.88c.23-18.65-14.99-33.88-33.65-33.88"/><path class="cls-3" d="M234.46,1733.13c0,4.81-3.89,8.7-8.7,8.7s-8.7-3.89-8.7-8.7,3.89-8.7,8.7-8.7,8.7,3.89,8.7,8.7"/><path class="cls-2" d="M684.01,1706.24c5.15,5.15,7.67,12.47,7.67,22.09v40.97h-6.75v-40.51c0-7.9-1.95-13.85-5.95-17.97s-9.61-6.18-16.71-6.18c-8.24,0-14.76,2.52-19.46,7.44-4.81,4.92-7.1,11.56-7.1,19.91v37.42h-6.75v-70.16h6.41v15.22c2.4-4.92,6.07-8.81,10.87-11.56s10.41-4.12,17.05-4.12c8.7-.23,15.68,2.29,20.71,7.44Z"/><path class="cls-2" d="M778.77,1735.76h-60.31c.23,5.49,1.6,10.3,4.12,14.53,2.63,4.23,6.07,7.55,10.53,9.84s9.38,3.55,14.99,3.55c4.58,0,8.81-.8,12.7-2.52,3.89-1.6,7.1-4.12,9.73-7.32l3.89,4.46c-3.09,3.66-6.87,6.52-11.44,8.47-4.58,1.95-9.61,2.98-14.99,2.98-6.98,0-13.28-1.49-18.65-4.58-5.49-3.09-9.73-7.21-12.82-12.59s-4.69-11.56-4.69-18.43,1.49-12.93,4.35-18.31,6.87-9.61,12.02-12.7,10.87-4.58,17.17-4.58,12.13,1.49,17.17,4.46,9.04,7.21,12.02,12.59c2.86,5.38,4.35,11.44,4.35,18.31l-.11,1.83ZM732.19,1707.73c-3.89,2.17-7.1,5.26-9.5,9.27s-3.78,8.47-4.12,13.5h53.79c-.23-5.04-1.6-9.5-4.01-13.39-2.4-3.89-5.61-6.98-9.5-9.27-3.89-2.29-8.35-3.32-13.28-3.32-5.04-.11-9.5,1.03-13.39,3.2Z"/><path class="cls-2" d="M898.71,1699.03l-26.67,70.16h-6.29l-23.69-60.89-23.8,60.89h-6.18l-26.67-70.16h6.41l23.35,62.6,23.92-62.6h5.84l23.8,62.49,23.69-62.49h6.29Z"/><path class="cls-2" d="M1005.15,1699.03l-36.05,79.77c-2.63,6.18-5.84,10.53-9.38,13.16-3.55,2.63-7.78,3.89-12.59,3.89-3.2,0-6.29-.57-9.04-1.6-2.86-1.03-5.26-2.63-7.21-4.69l3.32-5.15c3.55,3.66,7.9,5.49,13.05,5.49,3.43,0,6.29-.92,8.7-2.86,2.4-1.83,4.69-5.15,6.75-9.73l3.78-8.47-31.59-69.93h7.1l28.04,62.83,28.04-62.83h7.1v.11Z"/><path class="cls-2" d="M1027.35,1765.18c-5.38-3.09-9.5-7.32-12.59-12.7s-4.58-11.56-4.58-18.31,1.49-12.93,4.58-18.31,7.21-9.61,12.59-12.7,11.33-4.58,17.97-4.58,12.59,1.49,17.97,4.58,9.5,7.32,12.59,12.7c3.09,5.38,4.58,11.56,4.58,18.31s-1.49,12.93-4.58,18.31-7.21,9.61-12.59,12.7-11.33,4.58-17.97,4.58-12.7-1.49-17.97-4.58ZM1059.74,1759.91c4.23-2.52,7.67-5.95,10.07-10.53,2.52-4.46,3.66-9.61,3.66-15.34s-1.26-10.87-3.66-15.34c-2.52-4.46-5.84-8.01-10.07-10.53s-9.04-3.78-14.42-3.78-10.19,1.26-14.42,3.78c-4.23,2.52-7.67,5.95-10.07,10.53-2.52,4.46-3.66,9.61-3.66,15.34s1.26,10.87,3.66,15.34c2.52,4.46,5.84,8.01,10.07,10.53s9.04,3.78,14.42,3.78,10.07-1.26,14.42-3.78Z"/><path class="cls-2" d="M1117.76,1702.58c4.58-2.75,10.07-4.12,16.71-4.12v6.64l-1.6-.11c-7.78,0-13.85,2.4-18.31,7.32-4.35,4.92-6.64,11.67-6.64,20.37v36.51h-6.75v-70.16h6.41v15.34c2.17-5.04,5.61-9.04,10.19-11.79Z"/><path class="cls-2" d="M1177.96,1731.76l-18.31,16.71v20.83h-6.75v-99.8h6.75v70.61l44.86-40.97h8.58l-30.21,28.38,33.19,41.77h-8.35l-29.76-37.54Z"/><g id="Ebene_1-2"><path class="cls-1" d="M1112.17,1110.94l31.61-37.79.66-.79c3.03,1.52,6.41,2.46,10.03,2.46,12.44,0,22.51-10.08,22.51-22.51,0-5.05-1.72-9.67-4.53-13.42l.23-.28,43.38-51.86-67.78-66.8-26.09,36.66-.25-.46-45.41-80.23-31.36-16.48.19-.34c13.36-88.07,2.66-113.58,2.66-113.58l14.44-5.02c-.27-4.04-.94-7.96-1.84-11.79l.31.8,25.46-15.76,25.46-15.76-29.47,5.33-29.47,5.33.82,2.13c-2.34-4.29-5.09-8.32-8.22-12.02l.37.33,15.34-25.72,15.34-25.72-23.7,18.3-23.71,18.3.7.62c-4.91-3.21-10.26-5.79-15.91-7.73l3.29.7.67-29.94.67-29.94-11.6,27.61-11.6,27.61,1.26.27c-2.04-.17-4.08-.3-6.16-.3-2.85,0-5.64.25-8.41.58l1.07-.27-12.61-27.16-12.61-27.16,1.78,29.89,1.77,29.9,2.6-.66c-5.84,2.31-11.28,5.34-16.26,9.01l2.09-1.95-24.16-17.69-24.17-17.69,15.99,25.32,15.99,25.32,2.21-2.06c-3.07,3.58-5.91,7.37-8.24,11.51l12.33,19.49s-12.75,21.38-12.75,59.97l-.11.24-.08-.1s.19-.14.19-.14l-.42-.15-15.65-19.54s-35.62-40.72-41.19-189.4l-1.61-.02c8.38-3.94,14.22-12.4,14.22-22.27v-.04h20.36v-37.06h-15.58c17.78-44.84-9.89-85.77-11.28-87.79.3.46,1.04,1.76,1.53,3.66l-5.89,17.96c-3.5,3.88-8.72,8.05-16.55,12.33-35.95,19.61-26.56,53.81-26.56,53.81l-15.7.03v37.06h20.37v.04c0,9.65,5.58,17.91,13.65,21.97l-1.82-.02c-.99,194.45,40.57,242.94,40.57,242.94l.69.26-20.48,44.14,23.46,103.71c9.84-36.37.29,1.31.29,1.31l-.29-1.31c-27,99.72-22.29,188.41-22.29,188.41,0,0,5.52-4,14.58-12.39l-.16.45v132.11l15.36-15.18-.02.53v134.38l-39.58,51.95-.87.99h-24.12v36.12h-21.52v71.25h363.67v-71.25h-21.52v-36.12h-24.99l-28.2-57.4v-153.38l-.04-.26,16.12-10.13s-8.48-50.14-18.31-132.17l.15-.21,14.7,12.15Z"/><rect class="cls-1" x="810.59" y="1488.46" width="363.67" height="71.25"/><rect class="cls-1" x="832.12" y="1452.34" width="320.62" height="36.12"/><polyline class="cls-1" points="1127.75 1452.34 1099.55 1394.95 1099.55 1241.56"/><line class="cls-1" x1="1018.9" y1="1333.59" x2="1018.9" y2="1451.85"/><polyline class="cls-1" points="857.1 1451.35 896.69 1399.4 896.69 1265.02"/><polyline class="cls-1" points="897.43 1399.4 1031.39 1326.42 1031.39 1296.24"/><polyline class="cls-1" points="1013.91 1148.67 881.35 1279.66 881.35 1147.55"/><path class="cls-1" d="M1070.85,1076.74l11.26,192.9-85.72,44.53,48.61-454.21s-29.32,84.98-78.3,174.04c-48.98,89.06-99.76,125.5-99.76,125.5,0,0-10.57-196.75,89-333.68l-44.9-56.03-45.27,97.6,23.75,105.02"/><line class="cls-1" x1="1058.73" y1="866.64" x2="1068.29" y2="1031.39"/><path class="cls-1" d="M1087.18,1005.05c-3.94-40.24-7.55-82.25-10.64-129.14"/><path class="cls-1" d="M1081,1252.94l34.64-21.77s-8.48-50.14-18.31-132.17"/><path class="cls-1" d="M911.04,769.78s-35.62-40.72-41.19-189.4"/><path class="cls-1" d="M885.56,822.97s-41.56-48.49-40.57-242.94"/><path class="cls-1" d="M882.46,558.09c0,13.62-11.04,24.66-24.66,24.66s-24.66-11.04-24.66-24.66"/><rect class="cls-1" x="812.78" y="521" width="90.04" height="37.06"/><polyline class="cls-1" points="1013.91 843 1076.54 875.92 1121.95 956.14"/><path class="cls-1" d="M1015.63,806.54v20.13c0,21.87-10.58,39.6-23.63,39.6s-23.64-17.73-23.64-39.6v-19.15"/><path class="cls-1" d="M999.63,744.41c-4.61-7.98-7.22-16.31-8.23-24.27-.15,0-.28.06-.43.06-4.16,11.02-13.26,21.83-26.24,29.33-2,1.16-4.05,2.03-6.08,2.96-1.44,5.41-2.33,11.2-2.33,17.32,0,27.45,15.8,49.7,35.29,49.7s35.24-22.19,35.29-49.57c-10.29-4.5-20.23-13.35-27.26-25.52h0Z"/><path class="cls-1" d="M939.87,729.49c10.59-16.87,29.23-28.17,50.62-28.17,27.6,0,50.61,18.78,57.54,44.18l14.44-5.02c-2.51-37.61-33.74-67.36-71.98-67.36-27.04,0-50.57,14.88-62.95,36.88,0,0,12.33,19.49,12.33,19.49Z"/><path class="cls-1" d="M939.87,729.49s-12.76,21.38-12.76,59.97"/><path class="cls-1" d="M1048.03,745.51s10.7,25.51-2.66,113.58"/><path class="cls-1" d="M828.48,520.97s-9.39-34.2,26.56-53.81c32.84-17.92,20.78-34.14,20.78-34.14,0,0,29.69,42.06,11.38,88.07"/><path class="cls-1" d="M849.91,520.89s2.16-14.65,18.49-28.5c16.33-13.85,19.71-25.06,9.32-56.23"/><line class="cls-1" x1="968.16" y1="828.15" x2="955.94" y2="825.82"/><polyline class="cls-1" points="995.38 673.15 1006.98 645.54 1018.58 617.93 1017.91 647.87 1017.25 677.81"/><polyline class="cls-1" points="1029.17 684.23 1052.87 665.92 1076.57 647.62 1061.23 673.34 1045.89 699.06"/><polyline class="cls-1" points="961.47 678.9 959.7 649 957.92 619.11 970.53 646.27 983.15 673.43"/><polyline class="cls-1" points="1052.93 708.63 1082.4 703.3 1111.86 697.97 1086.4 713.73 1060.94 729.5"/><polyline class="cls-1" points="949.91 685.3 925.75 667.6 901.59 649.91 917.58 675.23 933.57 700.55"/><circle class="cls-1" cx="1154.47" cy="1052.31" r="22.51"/><polyline class="cls-1" points="1143.78 1073.15 1112.17 1110.94 1049.33 1058.99 1067.83 1033 1148.29 919.95 1216.07 986.75 1172.69 1038.6"/></g><g id="Ebene_1-2-2"><path class="cls-4" d="M528.25,309.78l-28.97,63.93c-2.07,5.06-4.6,8.51-7.59,10.58s-6.21,3.22-10.12,3.22c-2.53,0-5.06-.46-7.36-1.38s-4.14-2.07-5.75-3.68l2.76-4.14c2.76,2.99,6.44,4.37,10.35,4.37,2.76,0,5.06-.69,7.13-2.3,1.84-1.61,3.68-4.14,5.29-7.82l2.99-6.9-25.29-56.11h5.75l22.54,50.36,22.54-50.36h5.52l.23.23Z"/><path class="cls-4" d="M546.88,362.9c-4.37-2.53-7.59-5.75-10.12-10.12s-3.68-9.2-3.68-14.72,1.15-10.35,3.68-14.72c2.53-4.37,5.75-7.82,10.12-10.12,4.37-2.53,8.97-3.68,14.49-3.68s10.12,1.15,14.49,3.68c4.37,2.53,7.59,5.75,10.12,10.12s3.68,9.2,3.68,14.72-1.15,10.35-3.68,14.72c-2.53,4.37-5.75,7.82-10.12,10.12-4.37,2.53-9.2,3.68-14.49,3.68s-10.12-1.15-14.49-3.68ZM572.86,358.76c3.45-2.07,6.21-4.83,8.05-8.51s2.99-7.59,2.99-12.19-.92-8.74-2.99-12.19c-2.07-3.68-4.6-6.44-8.05-8.51s-7.36-2.99-11.5-2.99-8.28.92-11.5,2.99-6.21,4.83-8.05,8.51c-2.07,3.68-2.99,7.59-2.99,12.19s.92,8.74,2.99,12.19c2.07,3.68,4.6,6.44,8.05,8.51s7.36,2.99,11.5,2.99,8.28-.92,11.5-2.99Z"/><path class="cls-4" d="M618.39,312.77c3.68-2.3,8.05-3.22,13.34-3.22v5.29h-1.38c-6.21,0-11.04,1.84-14.72,5.75-3.45,3.91-5.29,9.43-5.29,16.33v29.43h-5.29v-56.34h5.29v12.19c1.84-4.14,4.37-7.13,8.05-9.43Z"/><path class="cls-4" d="M666.91,336l-14.72,13.34v16.79h-5.29v-80.02h5.29v56.57l36.1-32.88h6.9l-24.38,22.77,26.67,33.57h-6.67l-23.92-30.12Z"/><path class="cls-4" d="M778.9,361.29v5.06h-51.97v-3.91l31.96-31.73c4.14-4.14,6.9-7.82,8.51-10.81,1.38-2.99,2.3-5.98,2.3-9.2,0-4.83-1.61-8.51-4.83-11.27-3.22-2.76-8.05-4.14-14.26-4.14-4.83,0-8.97.69-12.42,2.07s-6.67,3.68-9.2,6.67l-3.91-3.45c2.76-3.22,6.44-5.75,11.04-7.59s9.43-2.76,14.95-2.76c7.36,0,13.34,1.84,17.71,5.29s6.67,8.51,6.67,14.49c0,3.91-.92,7.59-2.53,11.04-1.84,3.45-5.06,7.59-9.66,12.19l-27.82,27.82h43.69l-.23.23Z"/><path class="cls-4" d="M855.7,345.2h-15.87v20.93h-5.29v-20.93h-43v-3.91l40.93-50.59h6.21l-40.24,49.67h36.33v-18.4h5.29v18.4h15.87v4.83h-.23Z"/><path class="cls-2" d="M146.76,300.12v75.42h-5.52v-70.6h-18.4v-5.06h23.92v.23Z"/><path class="cls-2" d="M210.22,309.55c5.29,6.67,7.82,15.87,7.82,27.82,0,8.28-1.38,15.41-4.14,21.16s-6.67,10.12-11.73,13.11-11.04,4.37-17.71,4.37c-7.13,0-12.88-1.38-17.25-3.91l2.3-4.37c3.68,2.3,8.51,3.45,14.95,3.45,8.74,0,15.64-2.76,20.47-8.51s7.59-13.8,7.59-24.61c0-3.22,0-6.44-.69-8.97-1.61,4.83-4.37,8.74-8.74,11.5s-9.43,4.14-15.18,4.14c-5.06,0-9.43-.92-13.11-2.76-3.91-1.84-6.9-4.37-8.97-7.82-2.07-3.45-3.22-7.36-3.22-11.73s1.15-8.51,3.22-11.96c2.07-3.45,5.06-6.21,8.97-8.05,3.91-1.84,8.05-2.76,12.88-2.76,9.89,0,17.25,3.22,22.54,9.89ZM199.42,337.61c3.22-1.61,5.75-3.68,7.36-6.44,1.84-2.76,2.53-5.75,2.53-9.2,0-2.99-.92-5.98-2.53-8.74s-4.14-4.83-7.36-6.67c-3.22-1.61-7.13-2.53-11.73-2.53-5.98,0-10.58,1.61-14.26,4.83s-5.52,7.59-5.52,13.11,1.84,9.66,5.52,12.88,8.74,4.83,14.95,4.83c3.91,0,7.59-.69,10.81-2.3l.23.23Z"/><path class="cls-2" d="M247.71,344.74h53.81v3.91h-53.81v-3.91Z"/><path class="cls-2" d="M381.77,370.49v5.06h-51.97v-3.91l31.96-31.73c4.14-4.14,6.9-7.82,8.51-10.81,1.38-2.99,2.3-5.98,2.3-9.2,0-4.83-1.61-8.51-4.83-11.27s-8.05-4.14-14.26-4.14c-4.83,0-8.97.69-12.42,2.07s-6.67,3.68-9.2,6.67l-3.91-3.45c2.76-3.22,6.44-5.75,11.04-7.59s9.43-2.76,14.95-2.76c7.36,0,13.34,1.84,17.71,5.29s6.67,8.51,6.67,14.49c0,3.91-.92,7.59-2.53,11.04-1.84,3.45-5.06,7.59-9.66,12.19l-27.82,27.82h43.69l-.23.23Z"/><path class="cls-2" d="M405.45,371.41c-4.6-3.22-8.05-7.59-10.35-13.34s-3.68-12.42-3.68-20.24,1.15-14.49,3.68-20.24,5.98-10.12,10.35-13.34c4.6-3.22,9.66-4.6,15.41-4.6s10.81,1.61,15.41,4.6c4.6,3.22,8.05,7.59,10.35,13.34s3.68,12.42,3.68,20.24-1.15,14.49-3.68,20.24-5.98,10.12-10.35,13.34c-4.6,3.22-9.66,4.6-15.41,4.6s-10.81-1.61-15.41-4.6ZM433.28,367.04c3.68-2.53,6.44-6.44,8.51-11.5s2.99-11.04,2.99-17.94-.92-12.88-2.99-17.94c-2.07-5.06-4.83-8.74-8.51-11.5-3.68-2.53-7.82-3.91-12.65-3.91s-8.97,1.38-12.65,3.91-6.44,6.44-8.51,11.5-2.99,11.04-2.99,17.94.92,12.88,2.99,17.94,4.83,8.74,8.51,11.5,7.82,3.91,12.65,3.91,8.97-1.38,12.65-3.91Z"/><path class="cls-2" d="M112.72,460.4c-4.14-1.38-7.36-2.99-9.66-5.29l2.53-4.37c2.3,1.84,5.29,3.45,8.97,4.83,3.68,1.38,7.36,1.84,11.27,1.84,5.75,0,9.89-.92,12.65-2.76,2.76-1.84,4.14-4.37,4.14-7.82,0-2.3-.69-4.14-2.3-5.52-1.38-1.38-3.22-2.3-5.52-2.99-2.07-.69-5.06-1.38-8.97-2.07-4.37-.69-8.05-1.61-10.81-2.53s-5.06-2.53-7.13-4.6-2.99-5.06-2.99-8.74c0-4.37,1.84-8.05,5.52-11.04,3.68-2.99,8.97-4.37,15.87-4.37,3.68,0,7.13.46,10.58,1.61,3.45.92,6.44,2.3,8.74,3.91l-2.53,4.37c-2.3-1.61-4.83-2.99-7.82-3.68-2.99-.92-5.98-1.38-8.97-1.38-5.29,0-9.2.92-11.96,2.99-2.76,1.84-3.91,4.6-3.91,7.59,0,2.53.69,4.37,2.3,5.98,1.61,1.38,3.45,2.53,5.52,3.22,2.3.69,5.29,1.38,9.2,2.3,4.37.69,7.82,1.61,10.58,2.53s5.06,2.3,6.9,4.37c1.84,2.07,2.76,4.83,2.76,8.28,0,4.6-1.84,8.51-5.75,11.27s-9.43,4.14-16.33,4.14c-4.6,0-8.74-.69-12.88-2.07Z"/><path class="cls-2" d="M209.53,435.11h-48.52c0,4.37,1.15,8.28,3.45,11.73s4.83,5.98,8.51,7.82c3.45,1.84,7.59,2.76,11.96,2.76,3.68,0,7.13-.69,10.12-2.07,3.22-1.38,5.75-3.22,7.82-5.98l3.22,3.45c-2.53,2.99-5.52,5.29-9.2,6.9s-7.82,2.3-11.96,2.3c-5.52,0-10.58-1.15-14.95-3.68s-7.82-5.75-10.35-10.12-3.68-9.2-3.68-14.72,1.15-10.35,3.45-14.72c2.3-4.37,5.52-7.82,9.66-10.12,4.14-2.53,8.74-3.68,13.8-3.68s9.66,1.15,13.8,3.68c4.14,2.3,7.36,5.75,9.66,10.12s3.45,9.2,3.45,14.72v1.61h-.23ZM172.05,412.57c-3.22,1.84-5.75,4.14-7.59,7.36-1.84,3.22-2.99,6.9-3.22,10.81h43.23c0-4.14-1.38-7.59-3.22-10.81s-4.6-5.75-7.59-7.36c-3.22-1.84-6.67-2.76-10.58-2.76s-7.59.92-10.58,2.53l-.46.23Z"/><path class="cls-2" d="M267.94,408.89c4.14,2.53,7.59,5.75,9.89,10.12s3.68,9.2,3.68,14.72-1.15,10.58-3.68,14.95c-2.3,4.37-5.75,7.82-9.89,10.12s-8.97,3.68-14.26,3.68-9.43-1.15-13.57-3.45c-4.14-2.3-7.13-5.52-9.43-9.66v33.8h-5.29v-77.26h5.29v13.34c2.3-4.37,5.29-7.59,9.43-10.12,4.14-2.3,8.51-3.68,13.57-3.68s9.89,1.15,14.26,3.68v-.23ZM264.95,454.42c3.45-2.07,6.21-4.83,8.05-8.51s2.99-7.59,2.99-12.19-.92-8.74-2.99-12.19c-2.07-3.68-4.6-6.44-8.05-8.51s-7.36-2.99-11.73-2.99-8.28.92-11.5,2.99-6.21,4.83-8.05,8.51c-2.07,3.68-2.99,7.59-2.99,12.19s.92,8.74,2.99,12.19,4.6,6.44,8.05,8.51,7.36,2.99,11.5,2.99,8.28-.92,11.73-2.99Z"/><path class="cls-2" d="M325.43,458.33c-1.38,1.38-2.99,2.3-5.06,2.99-2.07.69-4.14.92-6.44.92-4.83,0-8.74-1.38-11.27-4.14-2.76-2.76-3.91-6.44-3.91-11.27v-36.79h-10.35v-4.6h10.35v-12.19h5.29v12.19h17.94v4.6h-17.94v36.33c0,3.68.92,6.44,2.76,8.28s4.37,2.76,7.82,2.76,6.44-.92,8.74-3.22l2.3,3.68-.23.46Z"/><path class="cls-2" d="M387.06,435.11h-48.52c0,4.37,1.15,8.28,3.45,11.73s4.83,5.98,8.51,7.82c3.45,1.84,7.59,2.76,11.96,2.76,3.68,0,7.13-.69,10.12-2.07,3.22-1.38,5.75-3.22,7.82-5.98l3.22,3.45c-2.53,2.99-5.52,5.29-9.2,6.9s-7.82,2.3-11.96,2.3c-5.52,0-10.58-1.15-14.95-3.68s-7.82-5.75-10.35-10.12-3.68-9.2-3.68-14.72,1.15-10.35,3.45-14.72c2.3-4.37,5.52-7.82,9.66-10.12,4.14-2.53,8.74-3.68,13.8-3.68s9.66,1.15,13.8,3.68c4.14,2.3,7.36,5.75,9.66,10.12s3.45,9.2,3.45,14.72v1.61h-.23ZM349.58,412.57c-3.22,1.84-5.75,4.14-7.59,7.36-1.84,3.22-2.99,6.9-3.22,10.81h43.23c0-4.14-1.38-7.59-3.22-10.81s-4.6-5.75-7.59-7.36c-3.22-1.84-6.67-2.76-10.58-2.76s-7.59.92-10.58,2.53l-.46.23Z"/><path class="cls-2" d="M489.62,411.42c3.91,4.14,5.98,10.12,5.98,17.71v32.88h-5.29v-32.42c0-6.21-1.61-11.04-4.6-14.49-2.99-3.22-7.36-5.06-12.88-5.06-6.44,0-11.27,2.07-14.95,5.98s-5.52,9.2-5.52,15.87v29.89h-5.29v-32.42c0-6.21-1.61-11.04-4.6-14.49-2.99-3.22-7.36-5.06-12.88-5.06-6.44,0-11.27,2.07-14.95,5.98s-5.52,9.2-5.52,15.87v29.89h-5.29v-56.34h5.29v12.19c1.84-3.91,4.6-7.13,8.28-9.2,3.68-2.3,8.05-3.22,13.11-3.22s9.43,1.15,12.88,3.45c3.45,2.3,6.21,5.75,7.59,10.12,1.84-4.14,4.83-7.59,8.74-9.89,3.91-2.53,8.74-3.68,14.03-3.68,6.9,0,12.42,2.07,16.56,6.21l-.69.23Z"/><path class="cls-2" d="M559.52,408.89c4.14,2.3,7.59,5.75,9.89,10.12s3.68,9.2,3.68,14.72-1.15,10.58-3.68,14.72c-2.3,4.37-5.75,7.59-9.89,10.12s-8.97,3.68-14.26,3.68-9.66-1.15-13.57-3.68c-4.14-2.3-7.13-5.75-9.43-10.12v13.34h-5.29v-80.02h5.29v36.56c2.3-4.14,5.29-7.36,9.43-9.66,3.91-2.3,8.51-3.45,13.57-3.45s9.89,1.15,14.26,3.68ZM556.53,454.65c3.45-2.07,6.21-4.83,8.05-8.51s2.99-7.59,2.99-12.19-.92-8.74-2.99-12.19c-2.07-3.68-4.6-6.44-8.05-8.51s-7.36-2.99-11.73-2.99-8.28.92-11.5,2.99-6.21,4.83-8.05,8.51c-2.07,3.68-2.99,7.59-2.99,12.19s.92,8.74,2.99,12.19,4.6,6.44,8.05,8.51,7.36,2.99,11.5,2.99,8.28-.92,11.73-2.99Z"/><path class="cls-2" d="M636.33,435.11h-48.52c0,4.37,1.15,8.28,3.45,11.73s4.83,5.98,8.51,7.82c3.45,1.84,7.59,2.76,11.96,2.76,3.68,0,7.13-.69,10.12-2.07,3.22-1.38,5.75-3.22,7.82-5.98l3.22,3.45c-2.53,2.99-5.52,5.29-9.2,6.9s-7.82,2.3-11.96,2.3c-5.52,0-10.58-1.15-14.95-3.68s-7.82-5.75-10.35-10.12-3.68-9.2-3.68-14.72,1.15-10.35,3.45-14.72c2.3-4.37,5.52-7.82,9.66-10.12,4.14-2.53,8.74-3.68,13.8-3.68s9.66,1.15,13.8,3.68c4.14,2.3,7.36,5.75,9.66,10.12s3.45,9.2,3.45,14.72v1.61h-.23ZM598.85,412.57c-3.22,1.84-5.75,4.14-7.59,7.36-1.84,3.22-2.99,6.9-3.22,10.81h43.23c0-4.14-1.38-7.59-3.22-10.81s-4.6-5.75-7.59-7.36c-3.22-1.84-6.67-2.76-10.58-2.76s-7.59.92-10.58,2.53l-.46.23Z"/><path class="cls-2" d="M665.76,408.66c3.68-2.3,8.05-3.22,13.34-3.22v5.29h-1.38c-6.21,0-11.04,1.84-14.72,5.75-3.45,3.91-5.29,9.43-5.29,16.33v29.43h-5.29v-56.34h5.29v12.19c1.84-4.14,4.37-7.13,8.05-9.43Z"/><path class="cls-4" d="M638.86,244.02c-20.01,0-36.33-16.1-36.33-36.1s16.33-36.1,36.33-36.1,36.33,16.1,36.33,36.1-16.33,36.1-36.33,36.1M706.46,207.91v-125.32h-31.27v68.53c-10.58-6.67-23-10.58-36.33-10.58-37.25,0-67.61,30.12-67.61,67.38s30.35,67.38,67.61,67.38,67.61-30.12,67.61-67.38h0Z"/><path class="cls-4" d="M818.68,234.13c-6.67,6.44-15.64,10.58-25.75,10.58-20.01,0-36.33-16.1-36.33-36.1s16.33-36.1,36.33-36.1c10.12,0,19.09,4.14,25.75,10.58l22.08-22.08c-12.19-12.19-29.2-19.78-47.83-19.78-37.25,0-67.61,30.12-67.61,67.38s30.35,67.38,67.61,67.38c18.63,0,35.64-7.59,47.83-19.78,0,0-22.08-22.08-22.08-22.08Z"/><path class="cls-4" d="M382.23,228.38c4.14,4.14,6.21,10.12,6.21,17.71v32.88h-5.29v-32.42c0-6.21-1.61-11.04-4.83-14.49-3.22-3.22-7.59-5.06-13.34-5.06-6.67,0-11.73,2.07-15.64,5.98-3.91,3.91-5.75,9.2-5.75,15.87v29.89h-5.29v-56.34h5.29v12.19c1.84-3.91,4.83-7.13,8.74-9.2,3.91-2.3,8.51-3.45,13.57-3.45,7.13,0,12.65,2.07,16.79,6.21l-.46.23Z"/><path class="cls-4" d="M457.42,252.29h-48.52c0,4.37,1.15,8.28,3.45,11.73,2.3,3.45,4.83,5.98,8.51,7.82,3.45,1.84,7.59,2.76,11.96,2.76,3.68,0,7.13-.69,10.12-2.07,3.22-1.38,5.75-3.22,7.82-5.98l3.22,3.45c-2.53,2.99-5.52,5.29-9.2,6.9s-7.82,2.3-11.96,2.3c-5.52,0-10.58-1.15-14.95-3.68s-7.82-5.75-10.35-10.12-3.68-9.2-3.68-14.72,1.15-10.35,3.45-14.72c2.3-4.37,5.52-7.82,9.66-10.12,4.14-2.53,8.74-3.68,13.8-3.68s9.66,1.15,13.8,3.68c4.14,2.3,7.36,5.75,9.66,10.12s3.45,9.2,3.45,14.72v1.61h-.23ZM419.94,229.76c-3.22,1.84-5.75,4.14-7.59,7.36-1.84,3.22-2.99,6.9-3.22,10.81h43.23c0-4.14-1.38-7.59-3.22-10.81s-4.6-5.75-7.59-7.36c-3.22-1.84-6.67-2.76-10.58-2.76s-7.59.92-10.58,2.53l-.46.23Z"/><path class="cls-4" d="M553.78,222.86l-21.39,56.34h-5.06l-19.09-48.75-19.09,48.75h-5.06l-21.39-56.34h5.29l18.86,50.36,19.09-50.36h4.6l19.09,50.13,19.09-50.13s5.06,0,5.06,0Z"/></g><path class="cls-4" d="M280.5,1561.9c-.2-3.9-.3-7.8-.3-11.8,0-132.1,107.1-239.2,239.2-239.2s239.2,107.1,239.2,239.2c0,3.9-.1,7.9-.3,11.8h205.8c.1-3.9.2-7.8.2-11.8,0-245.7-199.2-444.9-444.9-444.9s-444.9,199.2-444.9,444.9c0,3.9.1,7.9.2,11.8h205.8Z"/></svg>