<?xml version="1.0" encoding="UTF-8"?>
<svg id="Ebene_1" data-name="Ebene 1" xmlns="http://www.w3.org/2000/svg" version="1.1" viewBox="0 0 1280 1920">
  <defs>
    <style>
      .cls-1 {
        fill: #1fb7f8;
      }

      .cls-1, .cls-2, .cls-3, .cls-4, .cls-5 {
        stroke-width: 0px;
      }

      .cls-6 {
        fill: none;
        stroke: #0014e6;
        stroke-linecap: round;
        stroke-linejoin: round;
        stroke-width: 6px;
      }

      .cls-2 {
        fill: #ff7256;
      }

      .cls-3 {
        fill: #0014e6;
      }

      .cls-4 {
        fill: #fff;
      }

      .cls-5 {
        fill: #1fb7f8;
      }
    </style>
  </defs>
  <rect class="cls-4" width="1280" height="1920"/>
  <g id="Ebene_1-2" data-name="Ebene 1-2">
    <g>
      <path class="cls-1" d="M472.6,104.7v39.1h51.4v9.1h-51.4v42.2h-10.5v-99.5h68.2v9.1h-57.7,0Z"/>
      <path class="cls-1" d="M549.8,89.6h10.1v105.4h-10.1v-105.4Z"/>
      <path class="cls-1" d="M655.4,120.3v74.7h-9.7v-13.6c-2.7,4.5-6.3,8.1-10.9,10.6-4.6,2.5-9.9,3.8-15.9,3.8-9.8,0-17.5-2.7-23.1-8.2-5.6-5.4-8.5-13.4-8.5-23.9v-43.3h10.1v42.3c0,7.9,1.9,13.8,5.8,17.9,3.9,4.1,9.4,6.1,16.6,6.1s14.1-2.4,18.6-7.2c4.5-4.8,6.8-11.4,6.8-20v-39.2s10.1,0,10.1,0Z"/>
      <path class="cls-1" d="M723,190.5c-1.9,1.7-4.2,3-7,3.9s-5.7,1.3-8.7,1.3c-7,0-12.4-1.9-16.2-5.7-3.8-3.8-5.7-9.1-5.7-16.1v-45.2h-13.4v-8.5h13.4v-16.3h10.1v16.3h22.7v8.5h-22.7v44.6c0,4.5,1.1,7.8,3.3,10.2,2.2,2.3,5.4,3.5,9.6,3.5s4.1-.3,6-1c1.9-.7,3.6-1.6,5-2.8l3.6,7.2h0Z"/>
      <path class="cls-1" d="M778.7,190.5c-1.9,1.7-4.2,3-7,3.9s-5.7,1.3-8.7,1.3c-7,0-12.4-1.9-16.2-5.7-3.8-3.8-5.7-9.1-5.7-16.1v-45.2h-13.4v-8.5h13.4v-16.3h10.1v16.3h22.7v8.5h-22.7v44.6c0,4.5,1.1,7.8,3.3,10.2,2.2,2.3,5.4,3.5,9.6,3.5s4.1-.3,6-1c1.9-.7,3.6-1.6,5-2.8l3.6,7.2h0Z"/>
      <path class="cls-1" d="M859.4,160.8h-62.5c.6,7.8,3.6,14,9,18.8,5.4,4.8,12.2,7.2,20.5,7.2s8.9-.8,12.8-2.5c3.9-1.7,7.2-4.1,10.1-7.3l5.7,6.5c-3.3,4-7.5,7-12.4,9.1-5,2.1-10.4,3.1-16.4,3.1s-14.5-1.6-20.4-4.9c-5.9-3.3-10.5-7.8-13.9-13.6-3.3-5.8-5-12.3-5-19.6s1.6-13.8,4.8-19.6c3.2-5.8,7.5-10.3,13.1-13.5,5.5-3.2,11.8-4.8,18.7-4.8s13.1,1.6,18.6,4.8c5.5,3.2,9.8,7.7,12.9,13.4,3.1,5.7,4.7,12.3,4.7,19.7v3.1q-.1,0-.1,0ZM805.2,135.3c-4.9,4.6-7.6,10.6-8.3,18h53c-.7-7.4-3.4-13.4-8.3-18-4.9-4.6-11-6.9-18.3-6.9s-13.2,2.3-18.1,6.9Z"/>
      <path class="cls-1" d="M900.4,123.6c4.7-2.6,10.5-3.8,17.4-3.8v9.8h-2.4c-7.9-.1-14,2.3-18.5,7.1-4.5,4.8-6.7,11.6-6.7,20.3v38.1h-10.1v-74.7h9.7v14.6c2.4-5,5.9-8.8,10.6-11.4h0Z"/>
    </g>
    <path class="cls-3" d="M980.9,171.6c-3.7,3.7-8.7,5.9-14.3,5.9-11.2,0-20.2-9.1-20.2-20.2s9.1-20.2,20.2-20.2,10.6,2.3,14.3,5.9l12.3-12.3c-6.8-6.8-16.2-11-26.6-11-20.8,0-37.6,16.8-37.6,37.6s16.8,37.6,37.6,37.6,19.8-4.2,26.6-11l-12.3-12.3Z"/>
    <path class="cls-3" d="M1126.7,119.7c-20.8,0-37.6,16.8-37.6,37.6h0v37.6h17.4v-37.6h0c0-11.2,9.1-20.2,20.2-20.2s20.2,9.1,20.2,20.2v37.6h17.4v-37.6c0-20.8-16.8-37.6-37.6-37.6"/>
    <g>
      <path class="cls-1" d="M1046.4,157.3c0,5.3-4.3,9.7-9.7,9.7s-9.7-4.3-9.7-9.7,4.3-9.7,9.7-9.7,9.7,4.3,9.7,9.7"/>
      <path class="cls-3" d="M1088.5,132.3c-.1-.2-.4-.4-.6-.4l-21.7,1.7,9.6-20c.1-.2,0-.5-.1-.7-.2-.2-.5-.2-.7,0-7.7,4.3-19.4,10.6-20.7,11.2-5.2-2.8-11.2-4.3-17.6-4.3-20.8,0-37.6,16.8-37.6,37.6s16.8,37.6,37.6,37.6,37.6-16.8,37.6-37.6-.5-6.7-1.3-9.9l15.3-14.5c.2-.2.2-.5.1-.7h0ZM1036.8,177.6c-11.2,0-20.2-9.1-20.2-20.2s9.1-20.2,20.2-20.2,20.2,9.1,20.2,20.2-9.1,20.2-20.2,20.2Z"/>
    </g>
    <g>
      <path class="cls-1" d="M1003,223v75h-12.9v-11.3c-5.5,7.8-14.9,12.2-25.5,12.2-19.4,0-32.3-10.6-32.3-32.7v-43.2h13.6v41.6c0,14.7,7.4,22.1,20.2,22.1s23.2-8.8,23.2-24.9v-38.8h13.6Z"/>
      <path class="cls-1" d="M1019.4,290.1l5.7-10.8c6.4,4.5,16.6,7.8,26.3,7.8s17.8-3.8,17.8-10.2c0-16.8-47.4-2.3-47.4-32.1s12-22.5,31.3-22.5,20.8,2.5,27.3,6.8l-5.8,10.8c-6.8-4.4-14.3-5.9-21.6-5.9-11.9,0-17.7,4.4-17.7,10.3,0,17.7,47.5,3.3,47.5,32.4s-12.5,22.2-32.4,22.2-24.8-3.8-31-8.8Z"/>
      <path class="cls-1" d="M1159.2,252.7v45.3h-12.9v-9.9c-4.5,6.8-12.9,10.8-24.6,10.8-17,0-27.7-9.1-27.7-22.1s7.8-21.9,30.1-21.9h21.5v-2.7c0-11.5-6.7-18.1-20.1-18.1s-18,3.1-23.8,8.1l-5.7-10.2c7.8-6.2,19-9.6,31-9.6,20.5,0,32.1,9.9,32.1,30.4ZM1145.6,275.1v-10.5h-20.9c-13.4,0-17.3,5.2-17.3,11.6s6.2,12.2,16.6,12.2,18.3-4.7,21.6-13.3Z"/>
    </g>
    <g>
      <path class="cls-2" d="M129.6,322.7v84.6h-8.7v-76.9h-19.9v-7.7h28.6Z"/>
      <path class="cls-2" d="M209.9,364.2c0,28.8-15.7,43.7-38.7,43.7s-14.7-1.3-20.1-4.6l3.5-7c4.4,2.9,10.2,4,16.4,4,18.3,0,30-11.7,30-34.7s-.1-4.3-.4-6.9c-4.2,9.3-14.1,14.5-25.9,14.5-16.8,0-28.5-9.9-28.5-25.4s12.4-26,28.9-26,34.7,15.6,34.7,42.3ZM197.9,347.4c0-9.3-7.7-18.1-22.4-18.1s-20.7,7.1-20.7,18.4,8.2,18.3,21.3,18.3,21.8-8,21.8-18.5Z"/>
      <path class="cls-2" d="M243.5,371.4h60.4v6.2h-60.4v-6.2Z"/>
      <path class="cls-2" d="M397.8,399.5v7.7h-59.3v-6.2l35.2-34.4c9.6-9.4,11.4-15.1,11.4-20.9,0-9.8-6.9-15.8-19.8-15.8s-17.5,3-23.1,9.4l-6.2-5.3c6.5-7.7,17-12.1,30-12.1s28,8.7,28,22.8-2.5,15.4-13.9,26.5l-28.8,28.3h46.5Z"/>
      <path class="cls-2" d="M407.7,365c0-26.9,14.1-43,33.7-43s33.8,16.1,33.8,43-14.3,43-33.8,43-33.7-16.1-33.7-43ZM466.3,365c0-22.6-10.2-35-24.9-35s-24.9,12.4-24.9,35,10.2,35,24.9,35,24.9-12.4,24.9-35Z"/>
      <path class="cls-2" d="M514.3,400l3.9-6.8c5.1,4,13.6,7.1,22.6,7.1s17-4.1,17-10.4c0-16.6-41.2-3.5-41.2-28.6s8.9-18.1,25.1-18.1,17.2,2.3,22.5,5.9l-3.7,6.9c-5.6-3.9-12.2-5.4-18.7-5.4-11.5,0-16.6,4.5-16.6,10.5,0,17.2,41.2,4.2,41.2,28.6s-9.7,18.1-26.2,18.1-20.7-3.4-25.9-7.9Z"/>
      <path class="cls-2" d="M636.7,378.1h-53.2c1,13.3,11.1,22.1,25,22.1s14.6-2.8,19.5-8.3l4.8,5.6c-5.7,6.8-14.5,10.4-24.5,10.4-19.8,0-33.3-13.5-33.3-32.4s13.2-32.3,31.1-32.3,30.8,13.2,30.8,32.3-.1,1.7-.1,2.7ZM583.5,371.7h45.1c-1.1-12.4-10.2-21.1-22.6-21.1s-21.4,8.7-22.5,21.1Z"/>
      <path class="cls-2" d="M717.8,375.5c0,19.3-13.5,32.4-31.7,32.4s-18.9-4.3-24.2-12.6v35.4h-8.6v-87h8.2v12.6c5.2-8.5,14-13,24.5-13,18.1,0,31.7,13,31.7,32.3ZM709.2,375.5c0-14.7-10.3-24.8-23.7-24.8s-23.7,10-23.7,24.8,10.1,24.8,23.7,24.8,23.7-9.9,23.7-24.8Z"/>
      <path class="cls-2" d="M767.9,403.4c-3.4,3-8.5,4.5-13.4,4.5-12,0-18.6-6.8-18.6-18.5v-38.4h-11.4v-7.3h11.4v-13.9h8.6v13.9h19.3v7.3h-19.3v37.9c0,7.5,3.9,11.6,11,11.6s7-1.1,9.4-3.3l3,6.2Z"/>
      <path class="cls-2" d="M837.9,378.1h-53.2c1,13.3,11.1,22.1,25,22.1s14.6-2.8,19.5-8.3l4.8,5.6c-5.7,6.8-14.5,10.4-24.5,10.4-19.8,0-33.3-13.5-33.3-32.4s13.2-32.3,31.1-32.3,30.8,13.2,30.8,32.3-.1,1.7-.1,2.7ZM784.7,371.7h45.1c-1.1-12.4-10.2-21.1-22.6-21.1s-21.4,8.7-22.5,21.1Z"/>
      <path class="cls-2" d="M959.5,370.4v36.9h-8.6v-36c0-13.4-6.8-20.3-18.2-20.3s-21.3,8.5-21.3,23v33.4h-8.6v-36c0-13.4-6.8-20.3-18.4-20.3s-21.3,8.5-21.3,23v33.4h-8.6v-63.6h8.2v11.6c4.5-7.6,12.7-12.1,23.3-12.1s18.7,4.5,22.6,13.4c4.6-8.2,13.7-13.4,25.1-13.4s25.6,8.9,25.6,27.2Z"/>
      <path class="cls-2" d="M1046.3,375.5c0,19.2-13.5,32.4-31.7,32.4s-19.3-4.6-24.5-13.2v12.6h-8.2v-89.7h8.6v38.2c5.3-8.2,14-12.6,24.2-12.6,18.1,0,31.7,13,31.7,32.3ZM1037.7,375.5c0-14.9-10.3-24.8-23.7-24.8s-23.7,9.9-23.7,24.8,10.1,24.8,23.7,24.8,23.7-9.9,23.7-24.8Z"/>
      <path class="cls-2" d="M1118.3,378.1h-53.2c1,13.3,11.1,22.1,25,22.1s14.6-2.8,19.5-8.3l4.8,5.6c-5.7,6.8-14.5,10.4-24.5,10.4-19.8,0-33.3-13.5-33.3-32.4s13.2-32.3,31.1-32.3,30.8,13.2,30.8,32.3-.1,1.7-.1,2.7ZM1065.1,371.7h45.1c-1.1-12.4-10.2-21.1-22.6-21.1s-21.4,8.7-22.5,21.1Z"/>
      <path class="cls-2" d="M1167,343.2v8.3c-.7,0-1.5-.1-2.1-.1-13.3,0-21.4,8.5-21.4,23.4v32.4h-8.6v-63.6h8.2v12.4c4-8.5,12.1-12.9,23.8-12.9Z"/>
    </g>
  </g>
  <g>
    <rect class="cls-6" x="845.3" y="1756.5" width="363.7" height="71.2"/>
    <rect class="cls-6" x="866.8" y="1720.4" width="320.6" height="36.1"/>
    <polyline class="cls-6" points="1162.4 1720.4 1134.2 1663 1134.2 1509.6"/>
    <line class="cls-6" x1="1053.6" y1="1601.6" x2="1053.6" y2="1719.9"/>
    <polyline class="cls-6" points="891.8 1719.4 931.4 1667.4 931.4 1533"/>
    <polyline class="cls-6" points="932.1 1667.4 1066.1 1594.4 1066.1 1564.3"/>
    <polyline class="cls-6" points="1048.6 1416.7 916 1547.7 916 1415.6"/>
    <path class="cls-6" d="M1105.5,1344.8l11.3,192.9-85.7,44.5,48.6-454.2s-29.3,85-78.3,174c-49,89.1-99.8,125.5-99.8,125.5,0,0-10.6-196.7,89-333.7l-44.9-56-45.3,97.6,23.7,105"/>
    <line class="cls-6" x1="1093.4" y1="1134.7" x2="1103" y2="1299.4"/>
    <path class="cls-6" d="M1121.9,1273.1c-3.9-40.2-7.5-82.2-10.6-129.1"/>
    <path class="cls-6" d="M1115.7,1521l34.6-21.8s-8.5-50.1-18.3-132.2"/>
    <g>
      <path class="cls-6" d="M945.7,1037.8s-35.6-40.7-41.2-189.4"/>
      <path class="cls-6" d="M920.2,1091s-41.6-48.5-40.6-242.9"/>
    </g>
    <path class="cls-6" d="M917.1,826.1c0,13.6-11,24.7-24.7,24.7s-24.7-11-24.7-24.7"/>
    <rect class="cls-6" x="847.5" y="789" width="90" height="37.1"/>
    <polyline class="cls-6" points="1048.6 1111 1111.2 1143.9 1156.6 1224.2"/>
    <path class="cls-6" d="M1050.3,1074.6v20.1c0,21.9-10.6,39.6-23.6,39.6s-23.6-17.7-23.6-39.6v-19.1"/>
    <path class="cls-6" d="M1034.3,1012.4c-4.6-8-7.2-16.3-8.2-24.3-.1,0-.3,0-.4,0-4.2,11-13.3,21.8-26.2,29.3-2,1.2-4,2-6.1,3-1.4,5.4-2.3,11.2-2.3,17.3,0,27.4,15.8,49.7,35.3,49.7s35.2-22.2,35.3-49.6c-10.3-4.5-20.2-13.3-27.3-25.5h0Z"/>
    <path class="cls-6" d="M974.6,997.5c10.6-16.9,29.2-28.2,50.6-28.2s50.6,18.8,57.5,44.2l14.4-5c-2.5-37.6-33.7-67.4-72-67.4s-50.6,14.9-63,36.9c0,0,12.3,19.5,12.3,19.5Z"/>
    <path class="cls-6" d="M974.6,997.5s-12.8,21.4-12.8,60"/>
    <path class="cls-6" d="M1082.7,1013.5s10.7,25.5-2.7,113.6"/>
    <path class="cls-6" d="M863.2,789s-9.4-34.2,26.6-53.8c32.8-17.9,20.8-34.1,20.8-34.1,0,0,29.7,42.1,11.4,88.1"/>
    <path class="cls-6" d="M884.6,788.9s2.2-14.6,18.5-28.5c16.3-13.9,19.7-25.1,9.3-56.2"/>
    <line class="cls-6" x1="1002.9" y1="1096.2" x2="990.6" y2="1093.8"/>
    <polyline class="cls-6" points="1030.1 941.2 1041.7 913.6 1053.3 886 1052.6 915.9 1051.9 945.8"/>
    <polyline class="cls-6" points="1063.9 952.2 1087.6 933.9 1111.3 915.6 1095.9 941.4 1080.6 967.1"/>
    <polyline class="cls-6" points="996.2 946.9 994.4 917 992.6 887.1 1005.2 914.3 1017.8 941.4"/>
    <polyline class="cls-6" points="1087.6 976.6 1117.1 971.3 1146.6 966 1121.1 981.8 1095.6 997.5"/>
    <polyline class="cls-6" points="984.6 953.3 960.4 935.6 936.3 917.9 952.3 943.2 968.3 968.6"/>
    <circle class="cls-6" cx="1189.2" cy="1320.3" r="22.5"/>
    <polyline class="cls-6" points="1178.5 1341.2 1146.9 1379 1084 1327 1102.5 1301 1183 1188 1250.8 1254.8 1207.4 1306.6"/>
  </g>
  <g>
    <rect class="cls-1" x="545.2" y="1043.5" width="29.1" height="39.6" transform="translate(-587.9 707.2) rotate(-45)"/>
    <rect class="cls-1" x="593.6" y="1092" width="29.1" height="39.6" transform="translate(-608.1 755.7) rotate(-45)"/>
    <rect class="cls-3" x="529.9" y="1072.9" width="108.2" height="29.1" transform="translate(-597.9 731.4) rotate(-45)"/>
  </g>
  <g>
    <rect class="cls-3" x="170.2" y="733.8" width="49.6" height="23"/>
    <path class="cls-1" d="M226.3,745.2c0-14.8,11.9-26.7,26.7-26.7v-23c-27.4,0-49.6,22.2-49.6,49.6s22.2,49.6,49.6,49.6v-23c-14.7.2-26.7-11.8-26.7-26.5"/>
  </g>
  <path class="cls-5" d="M1121.9,1834.9c-64.3-230.6-275.8-399.8-526.9-399.8-251.1,0-462.5,169.2-526.9,399.8h1053.7Z"/>
  <g>
    <path class="cls-3" d="M250.8,1416.4c-5.8,2.5-8.4,9.3-5.8,15,2.5,5.8,9.3,8.4,15,5.8,5.8-2.5,8.4-9.3,5.8-15-2.5-5.8-9.3-8.4-15-5.8Z"/>
    <path class="cls-3" d="M392.4,1324.3l-17,14.9-58.8,51.6c-15.6-8.5-32.9-13.7-51.1-15.1h-.3s-.3,0-.3,0l-7.6-.4h-.3s-.3,0-.3,0c-19.2-.2-38.1,3.7-56.2,11.8-13.3,5.9-25.2,13.5-35.6,22.8-.3-1.3-.8-2.6-1.4-3.8-4.2-8.3-22.3-13.4-22.3-13.4,0,0-3,8-3.8,15.8-12.1-.7-29.6,9-29.6,9,0,0,10.2,22.9,21.9,26.8,2.3.8,4.7,1.2,7,1.3-15.1,28.1-19.2,61.1-11.3,93.2l5,20.3,19.2-8.5,25.8-11.4c2.8,14.7,17.5,25.5,36.3,26.1.5,0,1.2,0,1.9,0,4,0,7.9-.4,11.6-1,10.3-1.8,20-4.7,28.9-8.7,28.7-12.7,44.5-34.1,41.4-56-.6-4.1-1.9-8.1-3.8-11.9l64.2-28.4,19.2-8.5-11.7-17.4c-3.9-5.8-8.3-11.3-12.9-16.4l42-63.2,12.5-18.8c5.4-8.1-5.1-17.2-12.4-10.8ZM276.4,1496.8c.2.5.4,1,.6,1.5,0,.1,0,.2.1.4.2.5.3.9.4,1.4,0,.1,0,.3.1.4.1.6.3,1.2.3,1.8,0,0,0,0,0,0,0,.5.1,1.1.2,1.6,0,.2,0,.3,0,.5,0,.4,0,.8,0,1.2,0,.1,0,.3,0,.4,0,.5,0,1.1-.1,1.6,0,0,0,.2,0,.3,0,.4-.1.9-.2,1.3,0,.2,0,.3,0,.5,0,.4-.2.8-.3,1.2,0,.1,0,.3-.1.4-.2.5-.3,1-.5,1.6,0,.1,0,.2-.1.4-.2.4-.3.8-.5,1.2,0,.2-.1.3-.2.5-.2.4-.4.9-.6,1.3,0,0,0,.2-.1.3-.3.5-.6,1-.9,1.5,0,.1-.2.3-.3.4-.2.4-.5.8-.8,1.2-.1.1-.2.3-.3.4-.4.5-.7,1-1.1,1.5,0,0,0,0,0,0-.4.5-.8,1-1.2,1.5-.1.1-.3.3-.4.4-.3.4-.7.7-1,1.1-.1.1-.2.3-.4.4-.5.5-.9,1-1.4,1.4,0,0-.2.1-.2.2-.4.4-.9.8-1.3,1.2-.2.1-.3.3-.5.4-.4.4-.9.7-1.3,1.1-.1.1-.3.2-.4.3-.6.4-1.1.9-1.7,1.3-.1,0-.3.2-.4.3-.5.3-1,.7-1.4,1-.2.1-.4.3-.6.4-.5.4-1.1.7-1.6,1.1-.1,0-.2.1-.3.2-.7.4-1.3.8-2,1.2-.2.1-.4.2-.6.3-.5.3-1.1.6-1.6.9-.2.1-.4.2-.6.3-1.4.8-2.9,1.5-4.4,2.2-.2.1-.4.2-.7.3-.3.1-.5.2-.8.4s-.4.2-.7.3c-.5.2-1,.4-1.5.6-.4.2-.8.3-1.3.5-.5.2-1,.4-1.6.6-.4.2-.9.3-1.3.5-.5.2-1.1.4-1.6.6-.4.1-.9.3-1.3.4-.6.2-1.1.4-1.7.5-.4.1-.9.3-1.3.4-.6.2-1.2.3-1.8.5-.4.1-.9.2-1.3.4-.6.2-1.2.3-1.9.5-.4.1-.8.2-1.3.3-.7.2-1.4.3-2.1.5-.4,0-.7.2-1.1.2-1,.2-2.1.4-3.1.6,0,0-.1,0-.2,0-.7.1-1.4.2-2.1.3-.7,0-1.4.2-2.2.2-1.4.1-2.9.2-4.3.2,0,0-.2,0-.3,0-.3,0-.6,0-.9,0-11.2-.4-19.3-6.2-19.8-12.9,0-.3,0-.6,0-.9,0,0,0,0,0,0,0-.3,0-.5,0-.8,0,0,0,0,0,0,1.1-8.2,13.8-11.5,5.2-11.6-8.8,0-14.6-2.7-17.5-6.3,0,0,0,0,0,0-.3-.3-.5-.6-.7-1,0,0,0,0,0,0-.2-.3-.4-.6-.5-1,0,0,0-.1,0-.2-.1-.3-.3-.6-.4-.9,0-.1,0-.2-.1-.3,0-.3-.2-.5-.2-.8,0-.2,0-.4,0-.6,0-.2,0-.4,0-.6,0-.4,0-.8,0-1.2,0,0,0,0,0,0,0-.4,0-.9.2-1.3,0-.1,0-.3.1-.4,0-.3.2-.5.3-.8s.2-.3.2-.4c.1-.2.2-.4.4-.7,0-.2.2-.3.3-.4.1-.2.3-.4.5-.6.1-.1.3-.3.4-.4.2-.2.4-.4.5-.5.2-.1.3-.3.5-.4.2-.2.4-.3.6-.5.2-.1.4-.3.6-.4.2-.1.5-.3.7-.4.2-.1.4-.2.6-.3.3-.1.5-.3.8-.4.1,0,.3-.1.4-.2s.2,0,.4-.1c.2,0,.4-.2.6-.3.3-.1.6-.2.9-.3.2,0,.5-.2.7-.2.3-.1.6-.2.9-.3.2,0,.5-.2.7-.2.3,0,.6-.2,1-.3.3,0,.5-.1.8-.2.3,0,.7-.2,1-.2.3,0,.5-.1.8-.2.4,0,.8-.2,1.1-.2.2,0,.5,0,.7-.1.4,0,.9-.2,1.3-.2.2,0,.4,0,.6-.1.7-.1,1.3-.2,2-.3.4,0,.8-.1,1.2-.2.1,0,.2,0,.3,0,.2,0,.5,0,.7-.1.1,0,.2,0,.3,0,.2,0,.3,0,.5-.1,0,0,.2,0,.2,0,.1,0,.3,0,.4-.1,0,0,.1,0,.2,0,0,0,0,0,.1,0,0,0,.1,0,.2-.1,0,0,0,0,.1,0,0,0,0,0,.1-.1,0,0,0,0,0,0,0,0,0,0,0-.1,0,0,0,0,0,0,0,0,0-.1,0-.2,0,0,0,0,0,0,0,0,0-.1,0-.2,0,0,0,0,0,0,0,0,0-.1-.1-.2,0,0,0,0,0-.1,0,0,0-.1-.2-.2,0,0,0,0-.1-.1,0,0-.1-.1-.2-.2,0,0,0,0-.1-.1,0,0-.2-.2-.3-.2,0,0,0,0,0,0-.1-.1-.3-.2-.4-.3-.1-.1-.3-.2-.4-.3,0,0,0,0-.2-.1-.1,0-.2-.2-.3-.3,0,0-.1-.1-.2-.2-.1,0-.2-.2-.3-.3,0,0-.1-.1-.2-.2-.1-.1-.2-.2-.3-.3,0,0-.1-.1-.2-.2-.1-.1-.3-.3-.4-.4,0,0,0,0,0,0-.2-.2-.3-.3-.5-.5,0,0,0,0-.1-.1-.1-.1-.2-.3-.3-.4,0,0-.1-.1-.2-.2,0-.1-.2-.3-.3-.4,0,0-.1-.2-.2-.2,0-.1-.2-.3-.3-.4,0,0,0-.2-.1-.2,0-.1-.2-.3-.2-.5,0,0,0-.1-.1-.2,0-.2-.2-.4-.3-.6,0,0,0,0,0,0,0-.2-.2-.5-.2-.8,0,0,0-.2,0-.2,0-.2,0-.4-.1-.6,0,0,0-.2,0-.3,0-.2,0-.4,0-.5,0-.1,0-.2,0-.3,0-.2,0-.4,0-.6,0-.1,0-.2,0-.3,0-.2,0-.4,0-.6,0-.1,0-.2,0-.3,0-.3.1-.7.2-1,.1-.5.3-.9.5-1.3,0-.1.1-.2.2-.4.2-.3.4-.6.6-.9,0,0,.1-.2.2-.3.3-.4.6-.7.9-1,0,0,.1-.1.2-.2.3-.3.6-.5.9-.8.1,0,.2-.2.4-.3.3-.2.7-.5,1.1-.7,0,0,.1,0,.2-.1.4-.2.8-.4,1.2-.6s.1,0,.2,0c.6-.3,1.3-.5,2-.8.1,0,.3,0,.4-.1.6-.2,1.2-.4,1.8-.5.2,0,.5-.1.8-.2.5-.1,1.1-.2,1.6-.3.3,0,.5,0,.8-.1.6-.1,1.3-.2,1.9-.3.2,0,.3,0,.5,0,.8-.1,1.6-.2,2.4-.3.2,0,.5,0,.7,0,.6,0,1.2,0,1.8-.1.3,0,.5,0,.8,0,.6,0,1.1,0,1.7,0,.2,0,.5,0,.7,0,.8,0,1.5,0,2.2,0,1,0,1.9,0,2.8,0,.3,0,.6,0,.8,0,.7,0,1.3,0,2,0,.3,0,.7,0,1,0,.6,0,1.2,0,1.7.1.4,0,.7,0,1.1,0,.5,0,1.1,0,1.6.2.4,0,.7,0,1.1.1.5,0,1,.1,1.6.2.4,0,.7.1,1.1.2.5,0,1,.2,1.5.2.4,0,.7.1,1.1.2.5,0,1,.2,1.5.3.3,0,.7.1,1,.2.5.1,1,.2,1.5.3.3,0,.7.2,1,.2.5.1,1,.3,1.5.4.3,0,.6.2.9.3.5.1,1,.3,1.5.4.3,0,.6.2.9.3.5.2,1,.3,1.5.5.3,0,.5.2.8.3.5.2,1,.4,1.5.6.2,0,.5.2.7.3.5.2,1.1.5,1.6.7.2,0,.4.2.5.2.6.3,1.2.6,1.8.9,0,0,.2,0,.3.1,8,4,14,9.4,17.3,15.5h0c.3.6.6,1.1.8,1.7,0,0,0,.2,0,.2ZM280.5,1473.4c-3.4-3.1-7.3-5.9-11.8-8.3-13.1-7.3-29.7-11.1-46.8-10.7h0s0,0,0,0c-8.6.2-18.5,1-26.8,4.6-8.4,3.7-14.2,10.2-16.3,18.2-.6,2.4-.9,4.8-.9,7.1h0c-5.1,2.3-17.1,9.1-17.6,23.6-.2,5.9,1.5,11.7,4.9,16.5l-22.8,10.1c-8.3-33.7-1.2-69,19.8-96.2l4.9-5.9c11-12.4,24.7-22.3,40.5-29.3,15.8-7,32.3-10.5,48.9-10.3l7.6.4c34.2,2.7,65.2,21.2,84.5,50l-68.1,30.1Z"/>
  </g>
</svg>