<?xml version="1.0" encoding="UTF-8" standalone="no"?>
<!DOCTYPE svg PUBLIC "-//W3C//DTD SVG 1.1//EN" "http://www.w3.org/Graphics/SVG/1.1/DTD/svg11.dtd">
<svg width="100%" height="100%" viewBox="0 0 1280 1920" version="1.1" xmlns="http://www.w3.org/2000/svg" xmlns:xlink="http://www.w3.org/1999/xlink" xml:space="preserve" xmlns:serif="http://www.serif.com/" style="fill-rule:evenodd;clip-rule:evenodd;">
    <rect id="path_0" x="-3.4" y="-2" width="1284.4" height="1923.9" style="fill:rgb(125,225,195);fill-rule:nonzero;"/>
    <path id="path_1" d="M974.3,554L974.3,495.1C1040.9,495.1 1094.8,552.1 1094.8,622.5L1039.1,622.5C1039.1,584.6 1010.1,554 974.3,554" style="fill:rgb(125,225,195);fill-rule:nonzero;"/>
    <path id="path_2" d="M1089.8,347C1086.8,329.5 1076,314.2 1060.3,305.7L1056.7,303.9C1040.6,296.7 1022.3,296.7 1006.2,303.9L1002.7,305.7C987.1,314.2 976.2,329.5 973.2,347L1089.8,347ZM963.8,351C965.6,330.2 977,311.5 994.6,300.2L986.3,285.8C984.5,282.7 985.6,278.7 988.7,276.9C991.8,275.1 995.8,276.1 997.6,279.2C997.6,279.2 997.6,279.3 997.7,279.3L1006.4,294.3C1022.6,288.2 1040.6,288.2 1056.8,294.3L1065.5,279.2C1066.4,277.7 1067.8,276.6 1069.5,276.2C1073,275.3 1076.6,277.3 1077.5,280.8C1078,282.5 1077.7,284.3 1076.8,285.8L1068.5,300.2C1086,311.5 1097.4,330.2 1099.3,351L1099.8,355.8L963.4,355.8L963.8,351Z" style="fill:rgb(0,20,230);fill-rule:nonzero;"/>
    <path id="path_3" d="M1060.7,322.4C1064,322.4 1066.6,325 1066.6,328.3C1066.6,331.6 1064,334.2 1060.7,334.2C1057.4,334.2 1054.8,331.6 1054.8,328.3C1054.8,325.1 1057.4,322.4 1060.7,322.4" style="fill:rgb(0,20,230);fill-rule:nonzero;"/>
    <path id="path_4" d="M1002.5,322.4C1005.8,322.4 1008.4,325 1008.4,328.3C1008.4,331.6 1005.8,334.2 1002.5,334.2C999.2,334.2 996.6,331.6 996.6,328.3C996.6,325.1 999.3,322.4 1002.5,322.4" style="fill:rgb(0,20,230);fill-rule:nonzero;"/>
    <g id="g_0">
        <path d="M635.1,1578.1C625.6,1578.1 618,1570.4 618,1561C618,1551.6 625.7,1543.9 635.1,1543.9C644.5,1543.9 652.2,1551.6 652.2,1561C652.2,1570.4 644.5,1578.1 635.1,1578.1M635.1,1529.1C617.5,1529.1 603.3,1543.3 603.3,1561C603.3,1578.7 617.5,1592.8 635.1,1592.8C652.7,1592.8 666.9,1578.6 666.9,1561C666.9,1543.4 652.7,1529.2 635.1,1529.1" style="fill:white;fill-rule:nonzero;"/>
        <path d="M399.9,1578.1C390.4,1578.1 382.8,1570.4 382.8,1561C382.8,1551.6 390.5,1543.9 399.9,1543.9C409.3,1543.9 417,1551.6 417,1561C417,1570.5 409.3,1578.1 399.9,1578.1C399.967,1578.1 399.967,1578.1 399.9,1578.1M399.9,1529.1C382.3,1529.1 368,1543.3 368,1560.9C368,1578.5 382.2,1592.8 399.8,1592.8C417.4,1592.8 431.7,1578.6 431.7,1561C431.8,1543.4 417.6,1529.2 399.9,1529.1" style="fill:white;fill-rule:nonzero;"/>
        <path d="M286,1578.1C276.5,1578.1 268.9,1570.4 268.9,1561C268.9,1551.6 276.6,1543.9 286,1543.9C295.4,1543.9 303.1,1551.6 303.1,1561C303.1,1570.5 295.4,1578.1 286,1578.1M317.9,1561L317.9,1501.8L303.1,1501.8L303.1,1534.2C288.2,1524.7 268.6,1529.1 259.2,1543.9C249.7,1558.8 254.1,1578.4 268.9,1587.8C283.8,1597.3 303.4,1592.9 312.8,1578.1C316,1573 317.9,1567 317.9,1561Z" style="fill:white;fill-rule:nonzero;"/>
        <path d="M501.1,1578.1C491.6,1578.1 484,1570.4 484,1561C484,1551.6 491.7,1543.9 501.1,1543.9C510.5,1543.9 518.2,1551.6 518.2,1561C518.2,1570.4 510.5,1578.1 501.1,1578.1M532.9,1501.7L518.1,1501.7L518.1,1534.1C503.2,1524.6 483.6,1529 474.2,1543.8C464.7,1558.7 469.1,1578.3 483.9,1587.7C498.8,1597.2 518.4,1592.8 527.8,1578C531,1572.9 532.7,1566.9 532.7,1560.9L532.7,1501.7L532.9,1501.7Z" style="fill:white;fill-rule:nonzero;"/>
        <rect x="443" y="1529.2" width="14.8" height="63.7" style="fill:white;fill-rule:nonzero;"/>
        <path d="M329.2,1560.9L329.2,1592.8L344,1592.8L344,1560.9C344,1551.4 351.7,1543.8 361.1,1543.8L361.1,1529C343.4,1529 329.2,1543.3 329.2,1560.9" style="fill:white;fill-rule:nonzero;"/>
        <path d="M585.8,1573C579.1,1579.7 568.2,1579.7 561.6,1573C554.9,1566.3 554.9,1555.4 561.6,1548.8C568.3,1542.1 579.2,1542.1 585.8,1548.8L596.2,1538.4C583.8,1526 563.7,1526 551.2,1538.4C538.8,1550.8 538.8,1570.9 551.2,1583.4C563.6,1595.9 583.7,1595.8 596.2,1583.4L585.8,1573.1L585.8,1573Z" style="fill:white;fill-rule:nonzero;"/>
        <path d="M709.1,1529.2C691.5,1529.2 677.3,1543.4 677.3,1561L677.3,1592.9L692.1,1592.9L692.1,1561C692.1,1551.5 699.8,1543.9 709.2,1543.9C718.6,1543.9 726.3,1551.6 726.3,1561L726.3,1592.9L741.1,1592.9L741.1,1561C740.9,1543.4 726.7,1529.2 709.1,1529.2" style="fill:white;fill-rule:nonzero;"/>
        <path d="M408.1,1560.9C408.1,1565.4 404.4,1569.1 399.9,1569.1C395.4,1569.1 391.7,1565.4 391.7,1560.9C391.7,1556.4 395.4,1552.7 399.9,1552.7C404.4,1552.7 408.1,1556.4 408.1,1560.9" style="fill:rgb(0,20,230);fill-rule:nonzero;"/>
        <path d="M1125.3,1530.6C1120,1530.5 1114.9,1531.8 1110.2,1534.3C1106,1536.7 1102.7,1540.2 1100.6,1544.5L1100.6,1531L1094.9,1531L1094.9,1593.2L1100.8,1593.2L1100.8,1560.1C1100.8,1552.8 1103,1546.8 1107.1,1542.5C1111.3,1538.1 1117,1535.9 1124.3,1535.9C1130.6,1535.9 1135.6,1537.7 1139.2,1541.4C1142.8,1545.1 1144.5,1550.3 1144.5,1557.3L1144.5,1593.1L1150.4,1593.1L1150.4,1556.8C1150.4,1548.3 1148.1,1541.8 1143.6,1537.3C1139.1,1532.8 1132.9,1530.5 1125.2,1530.5M1046.6,1588.2C1042.1,1588.3 1037.7,1587.1 1033.8,1584.9C1030,1582.6 1026.9,1579.5 1024.9,1575.6C1020.5,1567.1 1020.5,1557 1024.9,1548.5C1026.9,1544.6 1030.1,1541.5 1033.8,1539.2C1041.8,1534.8 1051.5,1534.8 1059.4,1539.2C1063.2,1541.5 1066.3,1544.6 1068.3,1548.5C1072.7,1557 1072.7,1567.1 1068.3,1575.6C1066.3,1579.5 1063.1,1582.7 1059.4,1584.9C1055.4,1587.2 1051,1588.2 1046.6,1588.2M1046.6,1593.6C1052.2,1593.7 1057.6,1592.3 1062.4,1589.5C1067,1586.8 1070.9,1582.9 1073.5,1578.3C1078.9,1568.2 1078.9,1556 1073.5,1545.8C1070.9,1541.1 1067,1537.2 1062.4,1534.6C1052.5,1529.2 1040.5,1529.2 1030.6,1534.6C1026,1537.3 1022.1,1541.2 1019.5,1545.8C1014.1,1555.9 1014.1,1568.1 1019.5,1578.3C1022.1,1583 1026,1586.9 1030.6,1589.5C1035.4,1592.2 1040.9,1593.6 1046.5,1593.6M967.3,1588.2C962.8,1588.3 958.4,1587.1 954.5,1584.9C950.7,1582.6 947.6,1579.5 945.6,1575.6C941.2,1567.1 941.2,1557 945.6,1548.5C947.6,1544.6 950.8,1541.4 954.5,1539.2C962.5,1534.8 972.2,1534.8 980,1539.2C983.8,1541.5 986.9,1544.6 988.9,1548.5C993.3,1557 993.3,1567.1 988.9,1575.6C986.9,1579.5 983.7,1582.7 980,1584.9C976.2,1587.1 971.8,1588.2 967.3,1588.2M992.3,1504.6L992.3,1545.3C989.9,1540.8 986.3,1537 981.9,1534.3C977.4,1531.6 972.2,1530.3 966.9,1530.4C961.4,1530.3 956,1531.7 951.2,1534.4C946.6,1537 942.8,1540.9 940.2,1545.6C934.9,1555.8 934.9,1568 940.2,1578.2C942.8,1582.8 946.5,1586.7 951.2,1589.4C955.9,1592.1 961.4,1593.5 966.9,1593.5C972.2,1593.6 977.5,1592.2 982,1589.5C986.4,1586.9 990.1,1582.9 992.3,1578.3L992.3,1592.9L998.1,1592.9L998.1,1504.6L992.3,1504.6ZM894.7,1530.6C889.4,1530.5 884.3,1531.7 879.6,1534.3C875.4,1536.7 872.1,1540.2 870,1544.5L870,1531L864.3,1531L864.3,1593.2L870.2,1593.2L870.2,1560.1C870.2,1552.8 872.4,1546.8 876.5,1542.5C880.7,1538.1 886.4,1535.9 893.7,1535.9C900,1535.9 905,1537.7 908.6,1541.4C912.2,1545.1 913.9,1550.3 913.9,1557.3L913.9,1593.1L919.8,1593.1L919.8,1556.8C919.8,1548.3 917.5,1541.8 913,1537.3C908.6,1532.8 902.4,1530.5 894.7,1530.5M816.1,1588.2C811.6,1588.3 807.2,1587.1 803.3,1584.9C799.5,1582.6 796.4,1579.5 794.4,1575.6C790,1567.1 790,1557 794.4,1548.5C796.4,1544.6 799.6,1541.4 803.3,1539.2C811.3,1534.8 821,1534.8 828.8,1539.2C832.6,1541.5 835.7,1544.6 837.7,1548.5C842.1,1557 842.1,1567.1 837.7,1575.6C835.7,1579.5 832.5,1582.7 828.8,1584.9C825,1587.2 820.6,1588.4 816.1,1588.2M816.1,1593.6C821.7,1593.7 827.1,1592.3 831.9,1589.5C836.5,1586.8 840.4,1582.9 843,1578.3C848.4,1568.2 848.4,1556 843,1545.8C840.4,1541.1 836.5,1537.2 831.9,1534.6C822,1529.2 810,1529.2 800.1,1534.6C795.5,1537.3 791.6,1541.2 789,1545.8C783.6,1555.9 783.6,1568.1 789,1578.3C791.6,1583 795.5,1586.9 800.1,1589.5C805,1592.3 810.4,1593.7 816,1593.6M761.9,1593.2L767.8,1593.2L767.8,1504.9L761.9,1504.9L761.9,1593.2Z" style="fill:rgb(0,20,230);fill-rule:nonzero;"/>
        <path d="M776,257.5L776,237.9C763.4,237.9 753.2,227.7 753.2,215.1L733.6,215.1C733.6,238.5 752.6,257.5 776,257.5" style="fill:rgb(0,20,230);fill-rule:nonzero;"/>
        <path d="M733.6,215.1L714,215.1C714,227.7 703.8,237.9 691.2,237.9L691.2,257.5C714.6,257.5 733.6,238.5 733.6,215.1" style="fill:white;fill-rule:nonzero;"/>
        <path d="M691.2,172.6L691.2,192.3C703.8,192.3 714,202.5 714,215.1L733.6,215.1C733.6,191.6 714.6,172.6 691.2,172.6" style="fill:white;fill-rule:nonzero;"/>
        <path d="M202.8,1326.6L202.8,1284.8C175.9,1284.8 154.2,1263 154.2,1236.2L112.4,1236.2C112.4,1286.2 152.9,1326.6 202.8,1326.6" style="fill:rgb(0,20,230);fill-rule:nonzero;"/>
        <path d="M1036.7,553L994.9,553C994.9,579.9 973.1,601.6 946.3,601.6L946.3,643.4C996.2,643.4 1036.7,602.9 1036.7,553" style="fill:white;fill-rule:nonzero;"/>
        <path d="M1142,1411.9C1087.2,1213.2 906.8,1067.4 692.6,1067.4C478.4,1067.4 298.1,1213.2 243.2,1411.9L1142,1411.9Z" style="fill:white;fill-rule:nonzero;"/>
        <path d="M427.3,845.2L446.9,845.2C446.9,832.6 457.1,822.4 469.7,822.4L469.7,802.8C446.3,802.7 427.3,821.7 427.3,845.2" style="fill:white;fill-rule:nonzero;"/>
        <path d="M575.5,866.4L575.5,846.8C562.9,846.8 552.7,836.6 552.7,824L533.1,824C533.1,847.4 552.1,866.3 575.5,866.4" style="fill:rgb(0,20,230);fill-rule:nonzero;"/>
        <path d="M302.1,1017.3C287.7,1031.9 264.2,1032.1 249.5,1017.7C249.4,1017.6 249.2,1017.4 249.1,1017.3C234.4,1002.4 234.4,978.5 249.1,963.6C263.5,949 287,948.8 301.7,963.2C301.9,963.3 302,963.5 302.1,963.6C316.7,978.4 316.7,1002.4 302.1,1017.3M226.2,940.4C199,968.1 199,1012.6 226.2,1040.3C252.9,1067.5 296.7,1067.9 324,1041.2C324.3,1040.9 324.6,1040.6 324.9,1040.3C352.1,1012.6 352.1,968.1 324.9,940.4C298.1,913.2 254.4,912.8 227.1,939.5C226.8,939.9 226.5,940.1 226.2,940.4" style="fill:white;fill-rule:nonzero;"/>
        <rect x="17.8" y="1001.6" width="187" height="38" style="fill:rgb(125,225,195);fill-rule:nonzero;"/>
        <g transform="matrix(1,0,0,1,0,100.523)">
            <path d="M471.5,415.5C467.2,413 464,409.8 461.5,405.5C459,401.2 457.9,396.4 457.9,391C457.9,385.6 459,380.8 461.5,376.5C464,372.2 467.2,368.8 471.5,366.5C475.8,364 480.3,362.9 485.8,362.9C491.3,362.9 495.8,364 500.1,366.5C504.4,369 507.6,372.2 510.1,376.5C512.6,380.8 513.7,385.6 513.7,391C513.7,396.4 512.6,401.2 510.1,405.5C507.6,409.8 504.4,413.2 500.1,415.5C495.8,418 491,419.1 485.8,419.1C480.6,419.1 475.8,418 471.5,415.5ZM497.1,411.4C500.5,409.4 503.2,406.6 505,403C506.8,399.4 507.9,395.5 507.9,391C507.9,386.5 507,382.4 505,379C503,375.4 500.5,372.7 497.1,370.6C493.7,368.5 489.8,367.7 485.8,367.7C481.8,367.7 477.7,368.6 474.5,370.6C471.3,372.6 468.4,375.4 466.6,379C464.6,382.6 463.7,386.5 463.7,391C463.7,395.5 464.6,399.6 466.6,403C468.6,406.6 471.1,409.3 474.5,411.4C477.9,413.4 481.8,414.3 485.8,414.3C489.8,414.3 493.9,413.4 497.1,411.4Z" style="fill:white;fill-rule:nonzero;"/>
        </g>
        <g transform="matrix(1,0,0,1,0,100.923)">
            <path d="M572.5,368.9C576.6,373 578.6,378.9 578.6,386.3L578.6,418.7L573.4,418.7L573.4,386.8C573.4,380.7 571.8,375.9 568.6,372.5C565.4,369.3 561.1,367.5 555.5,367.5C548.9,367.5 543.9,369.5 540.1,373.4C536.3,377.2 534.4,382.5 534.4,389L534.4,418.4L529.2,418.4L529.2,363.1L534.4,363.1L534.4,375.1C536.2,371.3 539.2,368.1 543,366C546.8,363.7 551.4,362.6 556.4,362.6C563.4,362.6 568.9,364.6 572.9,368.7L572.5,368.7L572.5,368.9Z" style="fill:white;fill-rule:nonzero;"/>
        </g>
        <g transform="matrix(1,0,0,1,0,100.623)">
            <path d="M648.8,339.9L648.8,418.7L643.6,418.7L643.6,405.6C641.3,409.9 638.4,413.3 634.3,415.6C630.5,417.9 625.9,419 620.7,419C615.5,419 611,417.9 606.7,415.4C602.4,412.9 599.2,409.7 597,405.4C594.7,401.1 593.4,396.3 593.4,390.9C593.4,385.5 594.5,380.5 597,376.4C599.3,372.1 602.7,368.7 606.7,366.4C610.8,364.1 615.5,362.8 620.7,362.8C625.9,362.8 630.2,363.9 634.1,366.2C638,368.5 641.1,371.9 643.4,375.9L643.4,339.9L648.8,339.9ZM632.5,411.4C635.9,409.4 638.6,406.6 640.4,403C642.2,399.4 643.3,395.5 643.3,391C643.3,386.5 642.4,382.4 640.4,379C638.4,375.4 635.9,372.7 632.5,370.6C629.1,368.6 625.2,367.7 621.2,367.7C617.2,367.7 613.1,368.6 609.9,370.6C606.7,372.6 603.8,375.4 602,379C600,382.6 599.1,386.5 599.1,391C599.1,395.5 600,399.6 602,403C604,406.6 606.5,409.3 609.9,411.4C613.3,413.5 617.2,414.3 621.2,414.3C625.2,414.3 629.3,413.4 632.5,411.4Z" style="fill:white;fill-rule:nonzero;"/>
        </g>
        <g transform="matrix(1,0,0,1,0,100.523)">
            <path d="M677.8,415.5C673.5,413 670.3,409.8 667.8,405.5C665.3,401.2 664.2,396.4 664.2,391C664.2,385.6 665.3,380.8 667.8,376.5C670.3,372.2 673.5,368.8 677.8,366.5C682.1,364 686.6,362.9 692.1,362.9C697.6,362.9 702.1,364 706.4,366.5C710.7,369 713.9,372.2 716.4,376.5C718.9,380.8 720,385.6 720,391C720,396.4 718.9,401.2 716.4,405.5C713.9,409.8 710.7,413.2 706.4,415.5C702.1,418 697.3,419.1 692.1,419.1C686.9,419.1 682.1,418 677.8,415.5ZM703.4,411.4C706.8,409.4 709.5,406.6 711.3,403C713.1,399.4 714.2,395.5 714.2,391C714.2,386.5 713.3,382.4 711.3,379C709.3,375.4 706.8,372.7 703.4,370.6C700,368.5 696.1,367.7 692.1,367.7C688.1,367.7 684,368.6 680.8,370.6C677.6,372.6 674.7,375.4 672.9,379C670.9,382.6 670,386.5 670,391C670,395.5 670.9,399.6 672.9,403C674.9,406.6 677.4,409.3 680.8,411.4C684.2,413.5 688.1,414.3 692.1,414.3C696.1,414.3 700.2,413.4 703.4,411.4Z" style="fill:white;fill-rule:nonzero;"/>
        </g>
        <g transform="matrix(1,0,0,1,0,100.923)">
            <path d="M779.1,368.9C783.2,373 785.2,378.9 785.2,386.3L785.2,418.7L780,418.7L780,386.8C780,380.7 778.4,375.9 775.2,372.5C772,369.3 767.7,367.5 762.1,367.5C755.5,367.5 750.5,369.5 746.7,373.4C742.9,377.2 741,382.5 741,389L741,418.4L735.8,418.4L735.8,363.1L741,363.1L741,375.1C742.8,371.3 745.8,368.1 749.6,366C753.4,363.7 758,362.6 763,362.6C770,362.6 775.5,364.6 779.5,368.7L779.1,368.7L779.1,368.9Z" style="fill:white;fill-rule:nonzero;"/>
        </g>
        <g transform="matrix(1,0,0,1,0,1.82344)">
            <path d="M213.3,486.9C193.6,486.9 177.5,471 177.5,451.3C177.5,431.6 193.6,415.7 213.3,415.7C233,415.7 249.1,431.6 249.1,451.3C249.1,471 233,486.9 213.3,486.9M279.9,451.4L279.9,327.9L249.1,327.9L249.1,395.4C238.7,388.8 226.5,385 213.3,385C176.6,385 146.7,414.7 146.7,451.4C146.7,488.1 176.6,517.8 213.3,517.8C250,517.8 279.9,488.1 279.9,451.4Z" style="fill:rgb(0,20,230);fill-rule:nonzero;"/>
        </g>
        <g transform="matrix(1,0,0,1,0,1.32344)">
            <path d="M390.4,477.1C383.8,483.4 375,487.5 365,487.5C345.3,487.5 329.2,471.6 329.2,451.9C329.2,432.2 345.3,416.3 365,416.3C375,416.3 383.8,420.4 390.4,426.7L412.1,405C400.1,393 383.3,385.5 365,385.5C328.3,385.5 298.4,415.2 298.4,451.9C298.4,488.6 328.3,518.3 365,518.3C383.4,518.3 400.1,510.8 412.1,498.8L390.4,477.1Z" style="fill:rgb(0,20,230);fill-rule:nonzero;"/>
        </g>
        <path d="M1749.3,1211.6L1749.3,1281.6L1510.7,1281.6L1510.7,1209L1523.1,1209L1523.1,1184.8L1510.7,1184.8L1510.7,1118.1L1523.1,1118.1L1523.1,1093.9L1510.7,1093.9L1510.7,1019L1523.1,1019L1523.1,878.5L1503,834.2L1483.5,876.5L1481.8,876.5L1440.6,769.7L1401.2,876.4L1399.5,876.4L1380.3,834.1L1359.8,878.4L1359.8,948.8L1229.8,948.8L1051.6,948.6L955.6,948.6L955.6,878.2L935.2,833.9L915.8,876.5L914.5,876.5L875,769.5L833.6,876.5L832.2,876.5L812.5,833.9L792.4,878.2L792.4,1018.7L804.8,1018.7L804.8,1094L792.4,1094L792.4,1118.2L804.8,1118.2L804.8,1184.9L792.4,1184.9L792.4,1209.1L804.8,1209.1L804.8,1281.7L566.3,1281.7L566.3,1211.7L542.1,1211.7L542.1,1421.9L566.3,1421.9L566.3,1306.1L790.2,1306.1L790.2,1421.7L959.8,1421.7L959.8,1306.1L1355.8,1306.1L1355.8,1421.7L1525.4,1421.7L1525.4,1306.1L1749.3,1306.1L1749.3,1421.9L1773.5,1421.9L1773.5,1211.7L1749.3,1211.7L1749.3,1211.6ZM943.3,1281.4L943.3,1209L955.7,1209L955.7,1184.8L943.3,1184.8L943.3,1118.1L955.7,1118.1L955.7,1093.9L943.3,1093.9L943.3,1018.6L955.7,1018.6L955.7,990.3L1051.4,990.3L1231.1,990.5L1359.9,990.5L1359.9,1018.8L1372.3,1018.8L1372.3,1093.8L1359.9,1093.8L1359.9,1118L1372.3,1118L1372.3,1184.7L1359.9,1184.7L1359.9,1208.9L1372.3,1208.9L1372.3,1281.5L943.3,1281.5L943.3,1281.3L943.2,1281.4L943.3,1281.4Z" style="fill:rgb(0,20,230);fill-rule:nonzero;stroke:white;stroke-width:1.63px;"/>
        <path d="M606.4,1193.6L606.4,1281.4" style="fill:none;fill-rule:nonzero;stroke:white;stroke-width:1.63px;"/>
        <path d="M646.5,1172.1L646.5,1281.4" style="fill:none;fill-rule:nonzero;stroke:white;stroke-width:1.63px;"/>
        <path d="M686.6,1145.2L686.6,1281.4" style="fill:none;fill-rule:nonzero;stroke:white;stroke-width:1.63px;"/>
        <path d="M726.7,1109.8L726.7,1281.4" style="fill:none;fill-rule:nonzero;stroke:white;stroke-width:1.63px;"/>
        <path d="M766.8,1061.1L766.8,1281.4" style="fill:none;fill-rule:nonzero;stroke:white;stroke-width:1.63px;"/>
        <path d="M805,1018.8L805,1094" style="fill:none;fill-rule:nonzero;stroke:white;stroke-width:1.63px;"/>
        <path d="M805,1209L805,1281.5L834.6,1281.5" style="fill:rgb(0,20,230);fill-rule:nonzero;stroke:white;stroke-width:1.63px;"/>
        <path d="M805,1118.1L805,1184.9" style="fill:none;fill-rule:nonzero;stroke:white;stroke-width:1.63px;"/>
        <path d="M943.4,1209.2L943.4,1281.5L913.7,1281.5" style="fill:rgb(0,20,230);fill-rule:nonzero;stroke:white;stroke-width:1.63px;"/>
        <path d="M943.4,1118.2L943.4,1184.9" style="fill:none;fill-rule:nonzero;stroke:white;stroke-width:1.63px;"/>
        <path d="M943.4,1019L943.4,1094" style="fill:none;fill-rule:nonzero;stroke:white;stroke-width:1.63px;"/>
        <rect x="792.5" y="1184.9" width="163.3" height="24.2" style="fill:rgb(0,20,230);fill-rule:nonzero;stroke:white;stroke-width:1.63px;"/>
        <rect x="792.5" y="1094" width="163.3" height="24.1" style="fill:rgb(0,20,230);fill-rule:nonzero;stroke:white;stroke-width:1.63px;"/>
        <rect x="792.4" y="878.2" width="40.6" height="45.7" style="fill:rgb(0,20,230);fill-rule:nonzero;stroke:white;stroke-width:1.63px;"/>
        <path d="M833,878.2L792.4,878.2L812.6,833.9L833,878.2Z" style="fill:rgb(0,20,230);fill-rule:nonzero;stroke:white;stroke-width:1.63px;"/>
        <rect x="915.3" y="878.2" width="40.6" height="45.7" style="fill:rgb(0,20,230);fill-rule:nonzero;stroke:white;stroke-width:1.63px;"/>
        <path d="M955.8,878.2L915.2,878.2L935.4,833.9L955.8,878.2Z" style="fill:rgb(0,20,230);fill-rule:nonzero;stroke:white;stroke-width:1.63px;"/>
        <path d="M915.2,878.2L833.1,878.2L875.1,769.5L915.2,878.2Z" style="fill:rgb(0,20,230);fill-rule:nonzero;stroke:white;stroke-width:1.63px;"/>
        <path d="M566.3,1281.6L566.3,1211.6C669,1169.5 740.6,1115.9 792.5,1018.9" style="fill:rgb(0,20,230);fill-rule:nonzero;stroke:white;stroke-width:1.63px;"/>
        <path d="M606.4,1281.6L606.4,1193.8" style="fill:none;fill-rule:nonzero;stroke:white;stroke-width:1.63px;"/>
        <path d="M646.6,1281.6L646.6,1172.3" style="fill:none;fill-rule:nonzero;stroke:white;stroke-width:1.63px;"/>
        <path d="M686.6,1281.6L686.6,1145.3" style="fill:none;fill-rule:nonzero;stroke:white;stroke-width:1.63px;"/>
        <path d="M766.8,1281.6L766.8,1061.3" style="fill:none;fill-rule:nonzero;stroke:white;stroke-width:1.63px;"/>
        <path d="M566.3,1306L566.3,1281.4" style="fill:none;fill-rule:nonzero;stroke:white;stroke-width:1.63px;"/>
        <path d="M1229.9,948.8L1359.9,948.8L1359.9,924.2L1523.2,924.2L1523.2,1018.9L1359.9,1018.9L1359.9,990.7L1231.1,990.7L1051.4,990.4L955.7,990.4L955.7,1018.7L792.4,1018.7L792.4,923.9L955.7,923.9L955.7,948.6L1051.7,948.6L1229.9,948.8Z" style="fill:rgb(0,20,230);fill-rule:nonzero;stroke:white;stroke-width:1.63px;"/>
        <path d="M1355.9,1352.7C1355.9,1352.7 1231.2,1307.1 1158.8,1306.2C1086.4,1307.1 959.9,1352.7 959.9,1352.7" style="fill:rgb(0,20,230);fill-rule:nonzero;stroke:white;stroke-width:1.63px;"/>
        <path d="M1158.7,1306.2L1158.5,1281.7" style="fill:none;fill-rule:nonzero;stroke:white;stroke-width:1.63px;"/>
        <rect x="542.2" y="1211.6" width="24.2" height="210.2" style="fill:rgb(0,20,230);fill-rule:nonzero;stroke:white;stroke-width:1.63px;"/>
        <rect x="790.1" y="1306.1" width="169.6" height="115.6" style="fill:rgb(0,20,230);fill-rule:nonzero;stroke:white;stroke-width:1.63px;"/>
        <path d="M566.3,1306L1749.3,1306" style="fill:none;fill-rule:nonzero;stroke:white;stroke-width:1.63px;"/>
        <path d="M566.3,1281.4L1749.3,1281.4" style="fill:none;fill-rule:nonzero;stroke:white;stroke-width:1.63px;"/>
        <path d="M820.9,1094L820.9,1064.5C820.9,1056.3 826.2,1049.6 832.8,1049.6C839.4,1049.6 844.7,1056.3 844.7,1064.5L844.7,1094L820.9,1094Z" style="fill:rgb(0,20,230);fill-rule:nonzero;stroke:white;stroke-width:1.63px;"/>
        <path d="M862.2,1094L862.2,1064.5C862.2,1056.3 867.5,1049.6 874.1,1049.6C880.7,1049.6 886,1056.3 886,1064.5L886,1094L862.2,1094Z" style="fill:rgb(0,20,230);fill-rule:nonzero;stroke:white;stroke-width:1.63px;"/>
        <path d="M903.6,1094L903.6,1064.5C903.6,1056.3 908.9,1049.6 915.5,1049.6C922.1,1049.6 927.4,1056.3 927.4,1064.5L927.4,1094L903.6,1094Z" style="fill:rgb(0,20,230);fill-rule:nonzero;stroke:white;stroke-width:1.63px;"/>
        <path d="M820.9,1184.9L820.9,1155.4C820.9,1147.2 826.2,1140.5 832.8,1140.5C839.4,1140.5 844.7,1147.2 844.7,1155.4L844.7,1184.9L820.9,1184.9Z" style="fill:rgb(0,20,230);fill-rule:nonzero;stroke:white;stroke-width:1.63px;"/>
        <path d="M862.2,1184.9L862.2,1155.4C862.2,1147.2 867.5,1140.5 874.1,1140.5C880.7,1140.5 886,1147.2 886,1155.4L886,1184.9L862.2,1184.9Z" style="fill:rgb(0,20,230);fill-rule:nonzero;stroke:white;stroke-width:1.63px;"/>
        <path d="M903.6,1184.9L903.6,1155.4C903.6,1147.2 908.9,1140.5 915.5,1140.5C922.1,1140.5 927.4,1147.2 927.4,1155.4L927.4,1184.9L903.6,1184.9Z" style="fill:rgb(0,20,230);fill-rule:nonzero;stroke:white;stroke-width:1.63px;"/>
        <path d="M862.4,923.9L862.4,901C862.4,894.1 867.7,888.6 874.3,888.6C880.9,888.6 886.2,894.2 886.2,901L886.2,923.9L862.4,923.9Z" style="fill:rgb(0,20,230);fill-rule:nonzero;stroke:white;stroke-width:1.63px;"/>
        <g transform="matrix(1,0,0,1,0,100.923)">
            <rect x="437.1" y="339.9" width="5.2" height="78.8" style="fill:white;fill-rule:nonzero;"/>
        </g>
    </g>
</svg>
