<?xml version="1.0" encoding="UTF-8"?>
<svg id="Ebene_1" data-name="Ebene 1" xmlns="http://www.w3.org/2000/svg" version="1.1" viewBox="0 0 1280 1920">
  <defs>
    <style>
      .cls-1 {
        font-family: Montserrat-Light, Montserrat;
        font-size: 79.3px;
        font-weight: 300;
        isolation: isolate;
      }

      .cls-1, .cls-2 {
        fill: #0014e6;
      }

      .cls-3, .cls-4 {
        stroke-linecap: round;
      }

      .cls-3, .cls-4, .cls-5 {
        stroke: #fff;
        stroke-linejoin: round;
        stroke-width: 4.7px;
      }

      .cls-3, .cls-5 {
        fill: #0014e5;
      }

      .cls-6 {
        fill: #7de1c3;
      }

      .cls-6, .cls-2, .cls-7 {
        stroke-width: 0px;
      }

      .cls-4 {
        fill: none;
      }

      .cls-7 {
        fill: #fff;
      }
    </style>
  </defs>
  <rect class="cls-6" x="-3.4" y="-2" width="1284.4" height="1923.9"/>
  <path class="cls-6" d="M974.3,554v-58.9c66.6,0,120.5,57,120.5,127.4h-55.7c0-37.9-29-68.5-64.8-68.5"/>
  <path class="cls-7" d="M620,1329.5c-8.8,0-15.9-7.1-15.9-15.9s7.1-15.9,15.9-15.9,15.9,7.1,15.9,15.9-7.1,15.9-15.9,15.9h0M620,1284c-16.3,0-29.5,13.2-29.5,29.6s13.2,29.5,29.5,29.5,29.5-13.2,29.5-29.5h0c0-16.3-13.2-29.5-29.5-29.6"/>
  <path class="cls-7" d="M401.6,1329.5c-8.8,0-15.9-7.1-15.9-15.9s7.1-15.9,15.9-15.9,15.9,7.1,15.9,15.9h0c0,8.8-7.1,15.9-15.9,15.9q.1,0,0,0M401.6,1284c-16.3,0-29.6,13.2-29.6,29.5s13.2,29.6,29.5,29.6,29.6-13.2,29.6-29.5h0c.1-16.3-13.1-29.5-29.5-29.6"/>
  <path class="cls-7" d="M295.9,1329.5c-8.8,0-15.9-7.1-15.9-15.9s7.1-15.9,15.9-15.9,15.9,7.1,15.9,15.9h0c0,8.8-7.1,15.9-15.9,15.9h0M325.5,1313.6v-55h-13.7v30.1c-13.8-8.8-32-4.7-40.8,9-8.8,13.8-4.7,32,9,40.8,13.8,8.8,32,4.7,40.8-9,3-4.7,4.7-10.3,4.7-15.9h0Z"/>
  <path class="cls-7" d="M495.6,1329.5c-8.8,0-15.9-7.1-15.9-15.9s7.1-15.9,15.9-15.9,15.9,7.1,15.9,15.9-7.1,15.9-15.9,15.9h0M525.1,1258.6h-13.7v30.1c-13.8-8.8-32-4.7-40.8,9-8.8,13.8-4.7,32,9,40.8,13.8,8.8,32,4.7,40.8-9,3-4.7,4.6-10.3,4.6-15.9v-55h.1Z"/>
  <rect class="cls-7" x="441.6" y="1284.1" width="13.7" height="59.1"/>
  <path class="cls-7" d="M336,1313.6h0v29.6h13.7v-29.6c0-8.8,7.1-15.9,15.9-15.9h0v-13.7c-16.4,0-29.6,13.3-29.6,29.6"/>
  <path class="cls-7" d="M574.2,1324.8c-6.2,6.2-16.3,6.2-22.5,0s-6.2-16.3,0-22.5,16.3-6.2,22.5,0l9.7-9.7c-11.5-11.5-30.2-11.5-41.8,0-11.5,11.5-11.5,30.2,0,41.8s30.2,11.5,41.8,0h0l-9.7-9.6Z"/>
  <path class="cls-7" d="M688.7,1284.1c-16.3,0-29.5,13.2-29.5,29.5h0v29.6h13.7v-29.6h0c0-8.8,7.1-15.9,15.9-15.9s15.9,7.1,15.9,15.9v29.6h13.7v-29.6c-.2-16.3-13.4-29.5-29.7-29.5h0"/>
  <path class="cls-2" d="M409.2,1313.6c0,4.2-3.4,7.6-7.6,7.6s-7.6-3.4-7.6-7.6,3.4-7.6,7.6-7.6h0c4.2,0,7.6,3.4,7.6,7.6"/>
  <path class="cls-2" d="M1075.1,1285.4c-4.9,0-9.7,1.1-14,3.4-3.9,2.2-7,5.5-8.9,9.5v-12.5h-5.3v57.7h5.5v-30.7c0-6.8,2-12.3,5.9-16.3,3.9-4.1,9.2-6.1,16-6.1s10.5,1.7,13.8,5.1,4.9,8.3,4.9,14.8v33.2h5.5v-33.7c0-7.9-2.1-13.9-6.3-18.1-4.2-4.2-9.9-6.3-17.1-6.3M1002.1,1339c-4.2,0-8.3-1-11.9-3.1-3.5-2.1-6.4-5-8.3-8.6-4.1-7.9-4.1-17.3,0-25.2,1.9-3.6,4.8-6.5,8.3-8.6,7.4-4.1,16.4-4.1,23.8,0,3.5,2.1,6.4,5,8.3,8.6,4.1,7.9,4.1,17.3,0,25.2-1.9,3.6-4.8,6.6-8.3,8.6-3.7,2.1-7.8,3.1-11.9,3.1M1002.1,1344c5.2,0,10.2-1.2,14.7-3.8,4.3-2.5,7.9-6.1,10.3-10.4,5-9.4,5-20.7,0-30.2-2.4-4.4-6-8-10.3-10.4-9.2-5-20.3-5-29.5,0-4.3,2.5-7.9,6.1-10.3,10.4-5,9.4-5,20.7,0,30.2,2.4,4.4,6,8,10.3,10.4,4.5,2.5,9.6,3.8,14.8,3.8M928.6,1339c-4.2,0-8.3-1-11.9-3.1-3.5-2.1-6.4-5-8.3-8.6-4.1-7.9-4.1-17.3,0-25.2,1.9-3.6,4.8-6.6,8.3-8.6,7.4-4.1,16.4-4.1,23.7,0,3.5,2.1,6.4,5,8.3,8.6,4.1,7.9,4.1,17.3,0,25.2-1.9,3.6-4.8,6.6-8.3,8.6-3.5,2-7.6,3.1-11.8,3.1M951.8,1261.5v37.7c-2.2-4.2-5.6-7.7-9.7-10.2-4.2-2.5-9-3.7-13.9-3.6-5.1,0-10.1,1.2-14.6,3.7-4.3,2.4-7.8,6-10.2,10.4-4.9,9.5-4.9,20.8,0,30.3,2.4,4.3,5.9,7.9,10.2,10.4,4.4,2.5,9.5,3.8,14.6,3.8,4.9,0,9.8-1.2,14-3.7,4.1-2.4,7.5-6.1,9.6-10.4v13.6h5.4v-82h-5.4ZM861,1285.4c-4.9,0-9.7,1-14,3.4-3.9,2.2-7,5.5-8.9,9.5v-12.5h-5.3v57.7h5.5v-30.7c0-6.8,2-12.3,5.8-16.3,3.9-4.1,9.2-6.1,16-6.1s10.5,1.7,13.8,5.1,4.9,8.3,4.9,14.8v33.2h5.5v-33.7c0-7.9-2.1-13.9-6.3-18.1-4.1-4.2-9.8-6.3-17-6.3M788,1339c-4.2,0-8.3-1-11.9-3.1-3.5-2.1-6.4-5-8.3-8.6-4.1-7.9-4.1-17.3,0-25.2,1.9-3.6,4.8-6.6,8.3-8.6,7.4-4.1,16.4-4.1,23.7,0,3.5,2.1,6.4,5,8.3,8.6,4.1,7.9,4.1,17.3,0,25.2-1.9,3.6-4.8,6.6-8.3,8.6-3.5,2.1-7.6,3.2-11.8,3.1M788,1344c5.2,0,10.2-1.2,14.7-3.8,4.3-2.5,7.9-6.1,10.3-10.4,5-9.4,5-20.7,0-30.2-2.4-4.4-6-8-10.3-10.4-9.2-5-20.3-5-29.5,0-4.3,2.5-7.9,6.1-10.3,10.4-5,9.4-5,20.7,0,30.2,2.4,4.4,6,8,10.3,10.4,4.6,2.6,9.6,3.9,14.8,3.8M737.8,1343.6h5.5v-82h-5.5v82Z"/>
  <text class="cls-1" transform="translate(299.1 582.7)"><tspan x="0" y="0" xml:space="preserve">    </tspan></text>
  <text class="cls-1" transform="translate(299.1 647.3)"><tspan x="0" y="0" xml:space="preserve">    </tspan></text>
  <g>
    <path class="cls-2" d="M592.9,833c-11.3-19.1-30.7-32.2-52.8-35.2l-5-.5c-22-1.3-43.4,6.8-59.1,22.4l-3.3,3.7c-14.5,16.9-20.4,39.6-16.2,61.4l136.4-51.7ZM447.3,893.5c-7.1-25.1-2.1-52.1,13.5-73.1l-16.1-13.2c-3.5-2.8-4-8-1.1-11.5,2.8-3.5,7.9-4.1,11.4-1.3,0,0,0,.1.2,0l16.8,13.7c16.2-14.3,37.3-22.3,58.9-22.3l3.5-21.5c.4-2.2,1.5-4.1,3.3-5.3,3.7-2.6,8.8-1.9,11.4,1.8,1.3,1.8,1.8,4,1.4,6.2l-3.3,20.5c25.5,5.5,47.1,22.3,58.5,45.8l2.7,5.4-159.5,60.5-1.7-5.8Z"/>
    <path class="cls-2" d="M547.9,817.1c3.9-1.5,8.1.4,9.5,4.3s-.4,8.1-4.3,9.5-8.1-.4-9.5-4.3h0c-1.4-3.7.4-8.1,4.3-9.5h0"/>
    <path class="cls-2" d="M479.9,842.9c3.9-1.5,8.1.4,9.5,4.3s-.4,8.1-4.3,9.5-8.1-.4-9.5-4.3h0c-1.4-3.7.5-8.1,4.3-9.5h0"/>
  </g>
  <path class="cls-2" d="M776,321.2h0v-19.6c-12.6,0-22.8-10.2-22.8-22.8h-19.6c0,23.4,19,42.4,42.4,42.4"/>
  <path class="cls-7" d="M733.6,278.8h-19.6c0,12.6-10.2,22.8-22.8,22.8h0v19.6c23.4,0,42.4-19,42.4-42.4"/>
  <path class="cls-7" d="M691.2,236.3h0v19.7c12.6,0,22.8,10.2,22.8,22.8h19.6c0-23.5-19-42.5-42.4-42.5"/>
  <path class="cls-2" d="M246.1,1414.3h0v-41.8c-26.9,0-48.6-21.8-48.6-48.6h-41.8c0,50,40.5,90.4,90.4,90.4h0"/>
  <path class="cls-7" d="M1036.7,553h-41.8c0,26.9-21.8,48.6-48.6,48.6v41.8c49.9,0,90.4-40.5,90.4-90.4"/>
  <path class="cls-2" d="M1090.6,1175.2c-50.9-184.5-218.4-319.9-417.2-319.9s-366.3,135.4-417.2,319.9h834.4Z"/>
  <path class="cls-7" d="M113.3,559.4h19.6c0-12.6,10.2-22.8,22.8-22.8h0v-19.6c-23.4-.1-42.4,18.9-42.4,42.4"/>
  <path class="cls-2" d="M176.9,574.2h0v-19.6c-12.6,0-22.8-10.2-22.8-22.8h-19.6c0,23.4,19,42.3,42.4,42.4"/>
  <path class="cls-7" d="M382.8,1081.4c-14.4,14.6-37.9,14.8-52.6.4-.1,0-.3-.3-.4-.4-14.7-14.9-14.7-38.8,0-53.7,14.4-14.6,37.9-14.8,52.6-.4.2,0,.3.3.4.4,14.6,14.8,14.6,38.8,0,53.7M306.9,1004.5c-27.2,27.7-27.2,72.2,0,99.9,26.7,27.2,70.5,27.6,97.8.9.3-.3.6-.6.9-.9,27.2-27.7,27.2-72.2,0-99.9-26.8-27.2-70.5-27.6-97.8-.9-.3.4-.6.6-.9.9"/>
  <rect class="cls-6" x="262.4" y="1035.1" width="187" height="38"/>
  <g>
    <rect class="cls-5" x="803.2" y="457.7" width="67.1" height="36"/>
    <rect class="cls-5" x="777.8" y="538.2" width="117.8" height="38.2"/>
    <rect class="cls-5" x="764.5" y="576.4" width="144.9" height="143.8"/>
    <rect class="cls-5" x="779.4" y="720.1" width="115.3" height="412.1"/>
    <polygon class="cls-5" points="895.6 538.2 870.3 493.7 803.2 493.7 777.8 538.2 895.6 538.2"/>
    <polygon class="cls-3" points="803.2 457.7 836.9 384.2 870.3 457.7 803.2 457.7"/>
    <line class="cls-4" x1="837" y1="384.9" x2="837" y2="361"/>
    <line class="cls-4" x1="803.2" y1="460.5" x2="803.2" y2="429.8"/>
    <line class="cls-4" x1="777.8" y1="546.6" x2="777.8" y2="515.9"/>
    <line class="cls-4" x1="764.5" y1="584.8" x2="764.5" y2="554.2"/>
    <path class="cls-7" d="M802.7,575v-10.5c0-2.9,2.4-5.3,5.3-5.3s5.3,2.4,5.3,5.3v10.5h-10.6Z"/>
    <path class="cls-7" d="M831.4,575v-10.5c0-2.9,2.4-5.3,5.3-5.3s5.3,2.4,5.3,5.3v10.5h-10.6Z"/>
    <path class="cls-7" d="M831.7,492.4v-10.5c0-2.9,2.4-5.3,5.3-5.3s5.3,2.4,5.3,5.3v10.5h-10.6Z"/>
    <path class="cls-7" d="M815.1,492.4v-10.5c0-2.9,2.4-5.3,5.3-5.3s5.3,2.4,5.3,5.3v10.5h-10.6Z"/>
    <path class="cls-7" d="M848.3,492.4v-10.5c0-2.9,2.4-5.3,5.3-5.3s5.3,2.4,5.3,5.3v10.5h-10.6Z"/>
    <path class="cls-7" d="M859.8,575v-10.5c0-2.9,2.4-5.3,5.3-5.3s5.3,2.4,5.3,5.3v10.5h-10.6Z"/>
    <line class="cls-4" x1="909.4" y1="584.8" x2="909.4" y2="554.2"/>
    <line class="cls-4" x1="895.6" y1="546.6" x2="895.6" y2="515.9"/>
    <line class="cls-4" x1="870.3" y1="460.5" x2="870.3" y2="429.8"/>
    <rect class="cls-5" x="785.3" y="595.9" width="104.6" height="104.6"/>
    <circle class="cls-5" cx="836.9" cy="647.1" r="33.8"/>
    <polyline class="cls-3" points="824.9 660.3 836.9 648.2 836.9 626.5"/>
    <g>
      <path class="cls-7" d="M796.7,769.2v-29.5c0-2.9,2.4-5.3,5.3-5.3s5.3,2.4,5.3,5.3v29.5h-10.6Z"/>
      <path class="cls-7" d="M820.2,769.2v-29.5c0-2.9,2.4-5.3,5.3-5.3s5.3,2.4,5.3,5.3v29.5h-10.6Z"/>
      <path class="cls-7" d="M843.2,769.2v-29.5c0-2.9,2.4-5.3,5.3-5.3s5.3,2.4,5.3,5.3v29.5h-10.6Z"/>
      <path class="cls-7" d="M866.9,769.2v-29.5c0-2.9,2.4-5.3,5.3-5.3s5.3,2.4,5.3,5.3v29.5h-10.6Z"/>
    </g>
    <g>
      <path class="cls-7" d="M796.7,841.5v-29.5c0-2.9,2.4-5.3,5.3-5.3s5.3,2.4,5.3,5.3v29.5h-10.6Z"/>
      <path class="cls-7" d="M820.2,841.5v-29.5c0-2.9,2.4-5.3,5.3-5.3s5.3,2.4,5.3,5.3v29.5h-10.6Z"/>
      <path class="cls-7" d="M843.2,841.5v-29.5c0-2.9,2.4-5.3,5.3-5.3s5.3,2.4,5.3,5.3v29.5h-10.6Z"/>
      <path class="cls-7" d="M866.9,841.5v-29.5c0-2.9,2.4-5.3,5.3-5.3s5.3,2.4,5.3,5.3v29.5h-10.6Z"/>
    </g>
    <g>
      <path class="cls-7" d="M796.7,913.8v-29.5c0-2.9,2.4-5.3,5.3-5.3s5.3,2.4,5.3,5.3v29.5h-10.6Z"/>
      <path class="cls-7" d="M820.2,913.8v-29.5c0-2.9,2.4-5.3,5.3-5.3s5.3,2.4,5.3,5.3v29.5h-10.6Z"/>
      <path class="cls-7" d="M843.2,913.8v-29.5c0-2.9,2.4-5.3,5.3-5.3s5.3,2.4,5.3,5.3v29.5h-10.6Z"/>
      <path class="cls-7" d="M866.9,913.8v-29.5c0-2.9,2.4-5.3,5.3-5.3s5.3,2.4,5.3,5.3v29.5h-10.6Z"/>
    </g>
    <g>
      <path class="cls-7" d="M796.7,986.1v-29.5c0-2.9,2.4-5.3,5.3-5.3s5.3,2.4,5.3,5.3v29.5h-10.6Z"/>
      <path class="cls-7" d="M820.2,986.1v-29.5c0-2.9,2.4-5.3,5.3-5.3s5.3,2.4,5.3,5.3v29.5h-10.6Z"/>
      <path class="cls-7" d="M843.2,986.1v-29.5c0-2.9,2.4-5.3,5.3-5.3s5.3,2.4,5.3,5.3v29.5h-10.6Z"/>
      <path class="cls-7" d="M866.9,986.1v-29.5c0-2.9,2.4-5.3,5.3-5.3s5.3,2.4,5.3,5.3v29.5h-10.6Z"/>
    </g>
    <g>
      <path class="cls-7" d="M796.7,1058.4v-29.5c0-2.9,2.4-5.3,5.3-5.3s5.3,2.4,5.3,5.3v29.5h-10.6Z"/>
      <path class="cls-7" d="M820.2,1058.4v-29.5c0-2.9,2.4-5.3,5.3-5.3s5.3,2.4,5.3,5.3v29.5h-10.6Z"/>
      <path class="cls-7" d="M843.2,1058.4v-29.5c0-2.9,2.4-5.3,5.3-5.3s5.3,2.4,5.3,5.3v29.5h-10.6Z"/>
      <path class="cls-7" d="M866.9,1058.4v-29.5c0-2.9,2.4-5.3,5.3-5.3s5.3,2.4,5.3,5.3v29.5h-10.6Z"/>
    </g>
    <line class="cls-4" x1="779.4" y1="771" x2="894.7" y2="771"/>
    <line class="cls-4" x1="779.4" y1="843.3" x2="894.7" y2="843.3"/>
    <line class="cls-4" x1="779.4" y1="915.6" x2="894.7" y2="915.6"/>
    <line class="cls-4" x1="779.4" y1="987.8" x2="894.7" y2="987.8"/>
    <line class="cls-4" x1="779.4" y1="1060.1" x2="894.7" y2="1060.1"/>
  </g>
</svg>