<?xml version="1.0" encoding="UTF-8" standalone="no"?>
<!DOCTYPE svg PUBLIC "-//W3C//DTD SVG 1.1//EN" "http://www.w3.org/Graphics/SVG/1.1/DTD/svg11.dtd">
<svg width="100%" height="100%" viewBox="0 0 393 86" version="1.1" xmlns="http://www.w3.org/2000/svg" xmlns:xlink="http://www.w3.org/1999/xlink" xml:space="preserve" xmlns:serif="http://www.serif.com/" style="fill-rule:evenodd;clip-rule:evenodd;stroke-linejoin:round;stroke-miterlimit:2;">
    <g id="Logotypes_1_" transform="matrix(0.161398,0,0,0.161398,0,0)">
        <g>
            <g id="Logotypes">
                <g>
                    <path d="M499.8,520L0,520L0,20.4L499.8,20.4L249.9,270.1L499.8,520Z" style="fill:url(#_Linear1);fill-rule:nonzero;"/>
                </g>
            </g>
            <g>
                <path d="M1104.6,18.8L1004.3,18.8L788.1,250.7L788.1,20.4L708.2,20.4L708.2,520L788.1,520L788.1,278.7L1005.9,520L1107.7,520L877.4,261.6L1104.6,18.8Z" style="fill-rule:nonzero;"/>
                <path d="M1375.6,170.8C1347.4,155.1 1314.5,145.7 1280,145.7C1244,145.7 1211.1,153.5 1182.9,170.8C1154.7,188.1 1131.2,210 1115.5,238.2C1099.8,268 1092,300.9 1092,336.9C1092,372.9 1099.8,407.4 1115.5,435.6C1131.2,463.8 1153.1,487.3 1182.9,503C1211.1,518.7 1244,528.1 1280,528.1C1316,528.1 1348.9,520.3 1377.1,503C1405.3,487.3 1427.2,463.8 1442.9,435.6C1458.6,405.8 1466.4,372.9 1466.4,336.9C1466.4,300.9 1457,268 1441.3,238.2C1425.8,209.9 1403.8,186.4 1375.6,170.8ZM1369.4,400.9C1360,419.7 1347.5,433.8 1331.8,443.2C1316.1,454.2 1297.3,458.9 1277,458.9C1256.7,458.9 1237.8,454.2 1220.6,443.2C1204.9,432.2 1192.4,418.1 1183,400.9C1173.6,382.1 1170.5,361.7 1170.5,338.2C1170.5,314.7 1175.2,292.8 1184.6,275.5C1194,256.7 1206.5,242.6 1222.2,233.2C1237.9,222.2 1256.7,217.5 1278.6,217.5C1299,217.5 1317.8,222.2 1333.4,233.2C1349.1,244.2 1361.6,258.3 1371,275.5C1380.4,294.3 1383.5,314.7 1383.5,338.2C1383.5,361.7 1378.8,382.1 1369.4,400.9Z" style="fill-rule:nonzero;"/>
                <path d="M1629.3,62.7L1551.1,62.7L1551.1,125.4C1551.1,134.8 1549.5,142.6 1543.3,147.3C1538.6,152 1530.8,155.1 1521.4,155.1L1483.8,155.1L1483.8,220.9L1549.6,220.9L1549.6,418.3C1549.6,438.7 1554.3,457.5 1562.1,473.1C1569.9,488.8 1582.5,501.3 1598.1,509.1C1613.8,518.5 1631,521.6 1652.9,521.6L1712.4,521.6L1712.4,452.7L1668.5,452.7C1657.5,452.7 1648.1,449.6 1640.3,440.2C1634,432.4 1629.3,421.4 1629.3,408.9L1629.3,220.9L1713.9,220.9L1713.9,155.1L1629.3,155.1L1629.3,62.7Z" style="fill-rule:nonzero;"/>
                <rect x="1773.6" y="0" width="78.3" height="520"/>
                <rect x="1941.2" y="1.6" width="79.9" height="81.5"/>
                <rect x="1941.2" y="155.1" width="78.3" height="366.4"/>
                <path d="M2419.1,214.6C2408.1,192.7 2392.5,175.4 2372.1,164.5C2351.7,152 2328.2,145.7 2301.6,145.7C2273.4,145.7 2248.3,153.5 2226.4,166.1C2209.2,177.1 2195.1,192.7 2184.1,210L2184.1,153.6L2108.9,153.6L2108.9,520L2187.2,520L2187.2,314.7C2187.2,294.3 2190.3,277.1 2198.2,261.4C2206,245.7 2217,234.8 2229.5,225.4C2243.6,217.6 2259.3,212.9 2278.1,212.9C2295.3,212.9 2307.9,216 2320.4,223.9C2332.9,231.8 2340.8,241.1 2347,253.7C2353.3,266.2 2356.4,281.9 2356.4,299.1L2356.4,518.4L2434.7,518.4L2434.7,289.7C2436.4,261.6 2430.2,236.6 2419.1,214.6Z" style="fill-rule:nonzero;"/>
            </g>
        </g>
    </g>
    <defs>
        <linearGradient id="_Linear1" x1="0" y1="0" x2="1" y2="0" gradientUnits="userSpaceOnUse" gradientTransform="matrix(-499.705,499.705,-499.705,-499.705,499.755,20.3464)"><stop offset="0" style="stop-color:rgb(228,72,87);stop-opacity:1"/><stop offset="0" style="stop-color:rgb(228,72,87);stop-opacity:1"/><stop offset="0.47" style="stop-color:rgb(199,17,225);stop-opacity:1"/><stop offset="1" style="stop-color:rgb(127,82,255);stop-opacity:1"/></linearGradient>
    </defs>
</svg>
